ISO-10303-21;
HEADER;
/* Generated by software containing ST-Developer
 * from STEP Tools, Inc. (www.steptools.com) 
 */

FILE_DESCRIPTION(
/* description */ ('STEP AP214'),
/* implementation_level */ '2;1');

FILE_NAME(
/* name */ 'CameraModuleOnEagle.step',
/* time_stamp */ '2025-06-11T16:58:10-07:00',
/* author */ (''),
/* organization */ (''),
/* preprocessor_version */ 'ST-DEVELOPER v20.1',
/* originating_system */ 'Autodesk Translation Framework v14.10.0.0',
/* authorisation */ '');

FILE_SCHEMA (('AUTOMOTIVE_DESIGN { 1 0 10303 214 3 1 1 }'));
ENDSEC;

DATA;
#10=MECHANICAL_DESIGN_GEOMETRIC_PRESENTATION_REPRESENTATION('',(#13,#14),
#1056);
#11=SHAPE_REPRESENTATION_RELATIONSHIP('SRR','None',#1062,#12);
#12=ADVANCED_BREP_SHAPE_REPRESENTATION('',(#15,#16),#1055);
#13=STYLED_ITEM('',(#1071),#15);
#14=STYLED_ITEM('',(#1071),#16);
#15=MANIFOLD_SOLID_BREP('Camera',#643);
#16=MANIFOLD_SOLID_BREP('Body7',#644);
#17=FACE_BOUND('',#101,.T.);
#18=FACE_BOUND('',#105,.T.);
#19=FACE_BOUND('',#106,.T.);
#20=FACE_BOUND('',#107,.T.);
#21=FACE_BOUND('',#108,.T.);
#22=FACE_BOUND('',#127,.T.);
#23=FACE_BOUND('',#128,.T.);
#24=FACE_BOUND('',#129,.T.);
#25=FACE_BOUND('',#130,.T.);
#26=PLANE('',#649);
#27=PLANE('',#650);
#28=PLANE('',#651);
#29=PLANE('',#652);
#30=PLANE('',#653);
#31=PLANE('',#654);
#32=PLANE('',#655);
#33=PLANE('',#656);
#34=PLANE('',#657);
#35=PLANE('',#658);
#36=PLANE('',#659);
#37=PLANE('',#660);
#38=PLANE('',#661);
#39=PLANE('',#662);
#40=PLANE('',#663);
#41=PLANE('',#664);
#42=PLANE('',#673);
#43=PLANE('',#674);
#44=PLANE('',#675);
#45=PLANE('',#676);
#46=PLANE('',#677);
#47=PLANE('',#686);
#48=PLANE('',#689);
#49=PLANE('',#692);
#50=PLANE('',#695);
#51=PLANE('',#698);
#52=FACE_OUTER_BOUND('',#87,.T.);
#53=FACE_OUTER_BOUND('',#88,.T.);
#54=FACE_OUTER_BOUND('',#89,.T.);
#55=FACE_OUTER_BOUND('',#90,.T.);
#56=FACE_OUTER_BOUND('',#91,.T.);
#57=FACE_OUTER_BOUND('',#92,.T.);
#58=FACE_OUTER_BOUND('',#93,.T.);
#59=FACE_OUTER_BOUND('',#94,.T.);
#60=FACE_OUTER_BOUND('',#95,.T.);
#61=FACE_OUTER_BOUND('',#96,.T.);
#62=FACE_OUTER_BOUND('',#97,.T.);
#63=FACE_OUTER_BOUND('',#98,.T.);
#64=FACE_OUTER_BOUND('',#99,.T.);
#65=FACE_OUTER_BOUND('',#100,.T.);
#66=FACE_OUTER_BOUND('',#102,.T.);
#67=FACE_OUTER_BOUND('',#103,.T.);
#68=FACE_OUTER_BOUND('',#104,.T.);
#69=FACE_OUTER_BOUND('',#109,.T.);
#70=FACE_OUTER_BOUND('',#110,.T.);
#71=FACE_OUTER_BOUND('',#111,.T.);
#72=FACE_OUTER_BOUND('',#112,.T.);
#73=FACE_OUTER_BOUND('',#113,.T.);
#74=FACE_OUTER_BOUND('',#114,.T.);
#75=FACE_OUTER_BOUND('',#115,.T.);
#76=FACE_OUTER_BOUND('',#116,.T.);
#77=FACE_OUTER_BOUND('',#117,.T.);
#78=FACE_OUTER_BOUND('',#118,.T.);
#79=FACE_OUTER_BOUND('',#119,.T.);
#80=FACE_OUTER_BOUND('',#120,.T.);
#81=FACE_OUTER_BOUND('',#121,.T.);
#82=FACE_OUTER_BOUND('',#122,.T.);
#83=FACE_OUTER_BOUND('',#123,.T.);
#84=FACE_OUTER_BOUND('',#124,.T.);
#85=FACE_OUTER_BOUND('',#125,.T.);
#86=FACE_OUTER_BOUND('',#126,.T.);
#87=EDGE_LOOP('',(#427,#428,#429,#430));
#88=EDGE_LOOP('',(#431));
#89=EDGE_LOOP('',(#432,#433,#434,#435,#436,#437,#438,#439));
#90=EDGE_LOOP('',(#440,#441,#442,#443));
#91=EDGE_LOOP('',(#444,#445,#446,#447));
#92=EDGE_LOOP('',(#448,#449,#450,#451));
#93=EDGE_LOOP('',(#452,#453,#454,#455));
#94=EDGE_LOOP('',(#456,#457,#458,#459));
#95=EDGE_LOOP('',(#460,#461,#462,#463));
#96=EDGE_LOOP('',(#464,#465,#466,#467,#468,#469));
#97=EDGE_LOOP('',(#470,#471,#472,#473));
#98=EDGE_LOOP('',(#474,#475,#476,#477));
#99=EDGE_LOOP('',(#478,#479,#480,#481,#482,#483));
#100=EDGE_LOOP('',(#484,#485,#486,#487));
#101=EDGE_LOOP('',(#488));
#102=EDGE_LOOP('',(#489,#490,#491,#492,#493,#494,#495,#496,#497,#498));
#103=EDGE_LOOP('',(#499,#500,#501,#502));
#104=EDGE_LOOP('',(#503,#504,#505,#506,#507,#508,#509,#510,#511,#512));
#105=EDGE_LOOP('',(#513));
#106=EDGE_LOOP('',(#514));
#107=EDGE_LOOP('',(#515));
#108=EDGE_LOOP('',(#516));
#109=EDGE_LOOP('',(#517,#518,#519,#520,#521));
#110=EDGE_LOOP('',(#522,#523,#524,#525));
#111=EDGE_LOOP('',(#526,#527,#528,#529,#530));
#112=EDGE_LOOP('',(#531,#532,#533,#534));
#113=EDGE_LOOP('',(#535,#536,#537,#538));
#114=EDGE_LOOP('',(#539,#540,#541,#542));
#115=EDGE_LOOP('',(#543,#544,#545,#546));
#116=EDGE_LOOP('',(#547,#548,#549,#550));
#117=EDGE_LOOP('',(#551,#552,#553,#554));
#118=EDGE_LOOP('',(#555,#556,#557,#558));
#119=EDGE_LOOP('',(#559,#560,#561,#562));
#120=EDGE_LOOP('',(#563,#564,#565,#566));
#121=EDGE_LOOP('',(#567,#568,#569,#570));
#122=EDGE_LOOP('',(#571,#572,#573,#574));
#123=EDGE_LOOP('',(#575,#576,#577,#578));
#124=EDGE_LOOP('',(#579,#580,#581,#582));
#125=EDGE_LOOP('',(#583,#584,#585,#586));
#126=EDGE_LOOP('',(#587,#588,#589,#590,#591,#592,#593,#594));
#127=EDGE_LOOP('',(#595));
#128=EDGE_LOOP('',(#596));
#129=EDGE_LOOP('',(#597));
#130=EDGE_LOOP('',(#598));
#131=LINE('',#880,#199);
#132=LINE('',#886,#200);
#133=LINE('',#888,#201);
#134=LINE('',#890,#202);
#135=LINE('',#892,#203);
#136=LINE('',#894,#204);
#137=LINE('',#896,#205);
#138=LINE('',#898,#206);
#139=LINE('',#899,#207);
#140=LINE('',#903,#208);
#141=LINE('',#905,#209);
#142=LINE('',#907,#210);
#143=LINE('',#908,#211);
#144=LINE('',#910,#212);
#145=LINE('',#911,#213);
#146=LINE('',#913,#214);
#147=LINE('',#914,#215);
#148=LINE('',#918,#216);
#149=LINE('',#920,#217);
#150=LINE('',#921,#218);
#151=LINE('',#924,#219);
#152=LINE('',#925,#220);
#153=LINE('',#928,#221);
#154=LINE('',#930,#222);
#155=LINE('',#932,#223);
#156=LINE('',#933,#224);
#157=LINE('',#936,#225);
#158=LINE('',#938,#226);
#159=LINE('',#939,#227);
#160=LINE('',#942,#228);
#161=LINE('',#944,#229);
#162=LINE('',#945,#230);
#163=LINE('',#947,#231);
#164=LINE('',#948,#232);
#165=LINE('',#954,#233);
#166=LINE('',#956,#234);
#167=LINE('',#958,#235);
#168=LINE('',#959,#236);
#169=LINE('',#962,#237);
#170=LINE('',#964,#238);
#171=LINE('',#968,#239);
#172=LINE('',#972,#240);
#173=LINE('',#976,#241);
#174=LINE('',#988,#242);
#175=LINE('',#990,#243);
#176=LINE('',#991,#244);
#177=LINE('',#994,#245);
#178=LINE('',#996,#246);
#179=LINE('',#997,#247);
#180=LINE('',#999,#248);
#181=LINE('',#1000,#249);
#182=LINE('',#1002,#250);
#183=LINE('',#1006,#251);
#184=LINE('',#1010,#252);
#185=LINE('',#1014,#253);
#186=LINE('',#1018,#254);
#187=LINE('',#1023,#255);
#188=LINE('',#1024,#256);
#189=LINE('',#1025,#257);
#190=LINE('',#1029,#258);
#191=LINE('',#1032,#259);
#192=LINE('',#1033,#260);
#193=LINE('',#1037,#261);
#194=LINE('',#1040,#262);
#195=LINE('',#1041,#263);
#196=LINE('',#1045,#264);
#197=LINE('',#1048,#265);
#198=LINE('',#1049,#266);
#199=VECTOR('',#705,2.25);
#200=VECTOR('',#712,10.);
#201=VECTOR('',#713,10.);
#202=VECTOR('',#714,10.);
#203=VECTOR('',#715,10.);
#204=VECTOR('',#716,10.);
#205=VECTOR('',#717,10.);
#206=VECTOR('',#718,10.);
#207=VECTOR('',#719,10.);
#208=VECTOR('',#722,10.);
#209=VECTOR('',#723,10.);
#210=VECTOR('',#724,10.);
#211=VECTOR('',#725,10.);
#212=VECTOR('',#728,10.);
#213=VECTOR('',#729,10.);
#214=VECTOR('',#732,10.);
#215=VECTOR('',#733,10.);
#216=VECTOR('',#738,10.);
#217=VECTOR('',#739,10.);
#218=VECTOR('',#740,10.);
#219=VECTOR('',#743,10.);
#220=VECTOR('',#744,10.);
#221=VECTOR('',#747,10.);
#222=VECTOR('',#748,10.);
#223=VECTOR('',#749,10.);
#224=VECTOR('',#750,10.);
#225=VECTOR('',#753,10.);
#226=VECTOR('',#754,10.);
#227=VECTOR('',#755,10.);
#228=VECTOR('',#758,10.);
#229=VECTOR('',#759,10.);
#230=VECTOR('',#760,10.);
#231=VECTOR('',#763,10.);
#232=VECTOR('',#764,10.);
#233=VECTOR('',#771,10.);
#234=VECTOR('',#772,10.);
#235=VECTOR('',#773,10.);
#236=VECTOR('',#774,10.);
#237=VECTOR('',#777,10.);
#238=VECTOR('',#778,10.);
#239=VECTOR('',#781,10.);
#240=VECTOR('',#784,10.);
#241=VECTOR('',#787,10.);
#242=VECTOR('',#800,10.);
#243=VECTOR('',#801,10.);
#244=VECTOR('',#802,10.);
#245=VECTOR('',#805,10.);
#246=VECTOR('',#806,10.);
#247=VECTOR('',#807,10.);
#248=VECTOR('',#810,10.);
#249=VECTOR('',#811,10.);
#250=VECTOR('',#814,10.);
#251=VECTOR('',#819,1.6);
#252=VECTOR('',#824,1.6);
#253=VECTOR('',#829,1.6);
#254=VECTOR('',#834,1.6);
#255=VECTOR('',#839,10.);
#256=VECTOR('',#840,10.);
#257=VECTOR('',#841,10.);
#258=VECTOR('',#846,10.);
#259=VECTOR('',#849,10.);
#260=VECTOR('',#850,10.);
#261=VECTOR('',#855,10.);
#262=VECTOR('',#858,10.);
#263=VECTOR('',#859,10.);
#264=VECTOR('',#864,10.);
#265=VECTOR('',#867,10.);
#266=VECTOR('',#868,10.);
#267=CIRCLE('',#647,2.25);
#268=CIRCLE('',#648,2.25);
#269=CIRCLE('',#665,3.2);
#270=CIRCLE('',#666,3.2);
#271=CIRCLE('',#667,3.2);
#272=CIRCLE('',#668,3.2);
#273=CIRCLE('',#669,1.6);
#274=CIRCLE('',#670,1.6);
#275=CIRCLE('',#671,1.6);
#276=CIRCLE('',#672,1.6);
#277=CIRCLE('',#679,1.6);
#278=CIRCLE('',#681,1.6);
#279=CIRCLE('',#683,1.6);
#280=CIRCLE('',#685,1.6);
#281=CIRCLE('',#688,3.2);
#282=CIRCLE('',#691,3.2);
#283=CIRCLE('',#694,3.2);
#284=CIRCLE('',#697,3.2);
#285=VERTEX_POINT('',#877);
#286=VERTEX_POINT('',#879);
#287=VERTEX_POINT('',#884);
#288=VERTEX_POINT('',#885);
#289=VERTEX_POINT('',#887);
#290=VERTEX_POINT('',#889);
#291=VERTEX_POINT('',#891);
#292=VERTEX_POINT('',#893);
#293=VERTEX_POINT('',#895);
#294=VERTEX_POINT('',#897);
#295=VERTEX_POINT('',#901);
#296=VERTEX_POINT('',#902);
#297=VERTEX_POINT('',#904);
#298=VERTEX_POINT('',#906);
#299=VERTEX_POINT('',#917);
#300=VERTEX_POINT('',#919);
#301=VERTEX_POINT('',#923);
#302=VERTEX_POINT('',#927);
#303=VERTEX_POINT('',#929);
#304=VERTEX_POINT('',#931);
#305=VERTEX_POINT('',#935);
#306=VERTEX_POINT('',#937);
#307=VERTEX_POINT('',#941);
#308=VERTEX_POINT('',#943);
#309=VERTEX_POINT('',#952);
#310=VERTEX_POINT('',#953);
#311=VERTEX_POINT('',#955);
#312=VERTEX_POINT('',#957);
#313=VERTEX_POINT('',#961);
#314=VERTEX_POINT('',#963);
#315=VERTEX_POINT('',#965);
#316=VERTEX_POINT('',#967);
#317=VERTEX_POINT('',#969);
#318=VERTEX_POINT('',#971);
#319=VERTEX_POINT('',#973);
#320=VERTEX_POINT('',#975);
#321=VERTEX_POINT('',#978);
#322=VERTEX_POINT('',#980);
#323=VERTEX_POINT('',#982);
#324=VERTEX_POINT('',#984);
#325=VERTEX_POINT('',#987);
#326=VERTEX_POINT('',#989);
#327=VERTEX_POINT('',#993);
#328=VERTEX_POINT('',#995);
#329=VERTEX_POINT('',#1005);
#330=VERTEX_POINT('',#1009);
#331=VERTEX_POINT('',#1013);
#332=VERTEX_POINT('',#1017);
#333=VERTEX_POINT('',#1021);
#334=VERTEX_POINT('',#1022);
#335=VERTEX_POINT('',#1027);
#336=VERTEX_POINT('',#1031);
#337=VERTEX_POINT('',#1035);
#338=VERTEX_POINT('',#1039);
#339=VERTEX_POINT('',#1043);
#340=VERTEX_POINT('',#1047);
#341=EDGE_CURVE('',#285,#285,#267,.T.);
#342=EDGE_CURVE('',#285,#286,#131,.T.);
#343=EDGE_CURVE('',#286,#286,#268,.T.);
#344=EDGE_CURVE('',#287,#288,#132,.T.);
#345=EDGE_CURVE('',#289,#288,#133,.T.);
#346=EDGE_CURVE('',#290,#289,#134,.T.);
#347=EDGE_CURVE('',#290,#291,#135,.T.);
#348=EDGE_CURVE('',#291,#292,#136,.T.);
#349=EDGE_CURVE('',#293,#292,#137,.T.);
#350=EDGE_CURVE('',#294,#293,#138,.T.);
#351=EDGE_CURVE('',#294,#287,#139,.T.);
#352=EDGE_CURVE('',#295,#296,#140,.T.);
#353=EDGE_CURVE('',#296,#297,#141,.T.);
#354=EDGE_CURVE('',#298,#297,#142,.T.);
#355=EDGE_CURVE('',#295,#298,#143,.T.);
#356=EDGE_CURVE('',#291,#295,#144,.T.);
#357=EDGE_CURVE('',#292,#298,#145,.T.);
#358=EDGE_CURVE('',#296,#294,#146,.T.);
#359=EDGE_CURVE('',#297,#293,#147,.T.);
#360=EDGE_CURVE('',#299,#290,#148,.T.);
#361=EDGE_CURVE('',#300,#289,#149,.T.);
#362=EDGE_CURVE('',#299,#300,#150,.T.);
#363=EDGE_CURVE('',#288,#301,#151,.T.);
#364=EDGE_CURVE('',#300,#301,#152,.T.);
#365=EDGE_CURVE('',#301,#302,#153,.T.);
#366=EDGE_CURVE('',#303,#302,#154,.T.);
#367=EDGE_CURVE('',#304,#303,#155,.T.);
#368=EDGE_CURVE('',#304,#299,#156,.T.);
#369=EDGE_CURVE('',#305,#304,#157,.T.);
#370=EDGE_CURVE('',#306,#303,#158,.T.);
#371=EDGE_CURVE('',#305,#306,#159,.T.);
#372=EDGE_CURVE('',#307,#305,#160,.T.);
#373=EDGE_CURVE('',#308,#306,#161,.T.);
#374=EDGE_CURVE('',#307,#308,#162,.T.);
#375=EDGE_CURVE('',#287,#307,#163,.T.);
#376=EDGE_CURVE('',#302,#308,#164,.T.);
#377=EDGE_CURVE('',#309,#310,#165,.T.);
#378=EDGE_CURVE('',#309,#311,#166,.T.);
#379=EDGE_CURVE('',#311,#312,#167,.T.);
#380=EDGE_CURVE('',#312,#310,#168,.T.);
#381=EDGE_CURVE('',#313,#309,#169,.T.);
#382=EDGE_CURVE('',#310,#314,#170,.T.);
#383=EDGE_CURVE('',#314,#315,#269,.T.);
#384=EDGE_CURVE('',#315,#316,#171,.T.);
#385=EDGE_CURVE('',#316,#317,#270,.T.);
#386=EDGE_CURVE('',#317,#318,#172,.T.);
#387=EDGE_CURVE('',#318,#319,#271,.T.);
#388=EDGE_CURVE('',#319,#320,#173,.T.);
#389=EDGE_CURVE('',#320,#313,#272,.T.);
#390=EDGE_CURVE('',#321,#321,#273,.T.);
#391=EDGE_CURVE('',#322,#322,#274,.T.);
#392=EDGE_CURVE('',#323,#323,#275,.T.);
#393=EDGE_CURVE('',#324,#324,#276,.T.);
#394=EDGE_CURVE('',#325,#314,#174,.T.);
#395=EDGE_CURVE('',#326,#312,#175,.T.);
#396=EDGE_CURVE('',#325,#326,#176,.T.);
#397=EDGE_CURVE('',#327,#325,#177,.T.);
#398=EDGE_CURVE('',#328,#326,#178,.T.);
#399=EDGE_CURVE('',#327,#328,#179,.T.);
#400=EDGE_CURVE('',#313,#327,#180,.T.);
#401=EDGE_CURVE('',#328,#311,#181,.T.);
#402=EDGE_CURVE('',#313,#314,#182,.T.);
#403=EDGE_CURVE('',#321,#329,#183,.T.);
#404=EDGE_CURVE('',#329,#329,#277,.T.);
#405=EDGE_CURVE('',#322,#330,#184,.T.);
#406=EDGE_CURVE('',#330,#330,#278,.T.);
#407=EDGE_CURVE('',#323,#331,#185,.T.);
#408=EDGE_CURVE('',#331,#331,#279,.T.);
#409=EDGE_CURVE('',#324,#332,#186,.T.);
#410=EDGE_CURVE('',#332,#332,#280,.T.);
#411=EDGE_CURVE('',#333,#334,#187,.T.);
#412=EDGE_CURVE('',#334,#314,#188,.T.);
#413=EDGE_CURVE('',#333,#313,#189,.T.);
#414=EDGE_CURVE('',#333,#335,#281,.T.);
#415=EDGE_CURVE('',#335,#320,#190,.T.);
#416=EDGE_CURVE('',#336,#335,#191,.T.);
#417=EDGE_CURVE('',#336,#319,#192,.T.);
#418=EDGE_CURVE('',#336,#337,#282,.T.);
#419=EDGE_CURVE('',#337,#318,#193,.T.);
#420=EDGE_CURVE('',#338,#337,#194,.T.);
#421=EDGE_CURVE('',#338,#317,#195,.T.);
#422=EDGE_CURVE('',#338,#339,#283,.T.);
#423=EDGE_CURVE('',#339,#316,#196,.T.);
#424=EDGE_CURVE('',#340,#339,#197,.T.);
#425=EDGE_CURVE('',#340,#315,#198,.T.);
#426=EDGE_CURVE('',#340,#334,#284,.T.);
#427=ORIENTED_EDGE('',*,*,#341,.F.);
#428=ORIENTED_EDGE('',*,*,#342,.T.);
#429=ORIENTED_EDGE('',*,*,#343,.F.);
#430=ORIENTED_EDGE('',*,*,#342,.F.);
#431=ORIENTED_EDGE('',*,*,#341,.T.);
#432=ORIENTED_EDGE('',*,*,#344,.T.);
#433=ORIENTED_EDGE('',*,*,#345,.F.);
#434=ORIENTED_EDGE('',*,*,#346,.F.);
#435=ORIENTED_EDGE('',*,*,#347,.T.);
#436=ORIENTED_EDGE('',*,*,#348,.T.);
#437=ORIENTED_EDGE('',*,*,#349,.F.);
#438=ORIENTED_EDGE('',*,*,#350,.F.);
#439=ORIENTED_EDGE('',*,*,#351,.T.);
#440=ORIENTED_EDGE('',*,*,#352,.T.);
#441=ORIENTED_EDGE('',*,*,#353,.T.);
#442=ORIENTED_EDGE('',*,*,#354,.F.);
#443=ORIENTED_EDGE('',*,*,#355,.F.);
#444=ORIENTED_EDGE('',*,*,#356,.T.);
#445=ORIENTED_EDGE('',*,*,#355,.T.);
#446=ORIENTED_EDGE('',*,*,#357,.F.);
#447=ORIENTED_EDGE('',*,*,#348,.F.);
#448=ORIENTED_EDGE('',*,*,#358,.T.);
#449=ORIENTED_EDGE('',*,*,#350,.T.);
#450=ORIENTED_EDGE('',*,*,#359,.F.);
#451=ORIENTED_EDGE('',*,*,#353,.F.);
#452=ORIENTED_EDGE('',*,*,#359,.T.);
#453=ORIENTED_EDGE('',*,*,#349,.T.);
#454=ORIENTED_EDGE('',*,*,#357,.T.);
#455=ORIENTED_EDGE('',*,*,#354,.T.);
#456=ORIENTED_EDGE('',*,*,#360,.T.);
#457=ORIENTED_EDGE('',*,*,#346,.T.);
#458=ORIENTED_EDGE('',*,*,#361,.F.);
#459=ORIENTED_EDGE('',*,*,#362,.F.);
#460=ORIENTED_EDGE('',*,*,#361,.T.);
#461=ORIENTED_EDGE('',*,*,#345,.T.);
#462=ORIENTED_EDGE('',*,*,#363,.T.);
#463=ORIENTED_EDGE('',*,*,#364,.F.);
#464=ORIENTED_EDGE('',*,*,#362,.T.);
#465=ORIENTED_EDGE('',*,*,#364,.T.);
#466=ORIENTED_EDGE('',*,*,#365,.T.);
#467=ORIENTED_EDGE('',*,*,#366,.F.);
#468=ORIENTED_EDGE('',*,*,#367,.F.);
#469=ORIENTED_EDGE('',*,*,#368,.T.);
#470=ORIENTED_EDGE('',*,*,#369,.T.);
#471=ORIENTED_EDGE('',*,*,#367,.T.);
#472=ORIENTED_EDGE('',*,*,#370,.F.);
#473=ORIENTED_EDGE('',*,*,#371,.F.);
#474=ORIENTED_EDGE('',*,*,#372,.T.);
#475=ORIENTED_EDGE('',*,*,#371,.T.);
#476=ORIENTED_EDGE('',*,*,#373,.F.);
#477=ORIENTED_EDGE('',*,*,#374,.F.);
#478=ORIENTED_EDGE('',*,*,#375,.T.);
#479=ORIENTED_EDGE('',*,*,#374,.T.);
#480=ORIENTED_EDGE('',*,*,#376,.F.);
#481=ORIENTED_EDGE('',*,*,#365,.F.);
#482=ORIENTED_EDGE('',*,*,#363,.F.);
#483=ORIENTED_EDGE('',*,*,#344,.F.);
#484=ORIENTED_EDGE('',*,*,#376,.T.);
#485=ORIENTED_EDGE('',*,*,#373,.T.);
#486=ORIENTED_EDGE('',*,*,#370,.T.);
#487=ORIENTED_EDGE('',*,*,#366,.T.);
#488=ORIENTED_EDGE('',*,*,#343,.T.);
#489=ORIENTED_EDGE('',*,*,#375,.F.);
#490=ORIENTED_EDGE('',*,*,#351,.F.);
#491=ORIENTED_EDGE('',*,*,#358,.F.);
#492=ORIENTED_EDGE('',*,*,#352,.F.);
#493=ORIENTED_EDGE('',*,*,#356,.F.);
#494=ORIENTED_EDGE('',*,*,#347,.F.);
#495=ORIENTED_EDGE('',*,*,#360,.F.);
#496=ORIENTED_EDGE('',*,*,#368,.F.);
#497=ORIENTED_EDGE('',*,*,#369,.F.);
#498=ORIENTED_EDGE('',*,*,#372,.F.);
#499=ORIENTED_EDGE('',*,*,#377,.F.);
#500=ORIENTED_EDGE('',*,*,#378,.T.);
#501=ORIENTED_EDGE('',*,*,#379,.T.);
#502=ORIENTED_EDGE('',*,*,#380,.T.);
#503=ORIENTED_EDGE('',*,*,#381,.T.);
#504=ORIENTED_EDGE('',*,*,#377,.T.);
#505=ORIENTED_EDGE('',*,*,#382,.T.);
#506=ORIENTED_EDGE('',*,*,#383,.T.);
#507=ORIENTED_EDGE('',*,*,#384,.T.);
#508=ORIENTED_EDGE('',*,*,#385,.T.);
#509=ORIENTED_EDGE('',*,*,#386,.T.);
#510=ORIENTED_EDGE('',*,*,#387,.T.);
#511=ORIENTED_EDGE('',*,*,#388,.T.);
#512=ORIENTED_EDGE('',*,*,#389,.T.);
#513=ORIENTED_EDGE('',*,*,#390,.T.);
#514=ORIENTED_EDGE('',*,*,#391,.T.);
#515=ORIENTED_EDGE('',*,*,#392,.T.);
#516=ORIENTED_EDGE('',*,*,#393,.T.);
#517=ORIENTED_EDGE('',*,*,#394,.T.);
#518=ORIENTED_EDGE('',*,*,#382,.F.);
#519=ORIENTED_EDGE('',*,*,#380,.F.);
#520=ORIENTED_EDGE('',*,*,#395,.F.);
#521=ORIENTED_EDGE('',*,*,#396,.F.);
#522=ORIENTED_EDGE('',*,*,#397,.T.);
#523=ORIENTED_EDGE('',*,*,#396,.T.);
#524=ORIENTED_EDGE('',*,*,#398,.F.);
#525=ORIENTED_EDGE('',*,*,#399,.F.);
#526=ORIENTED_EDGE('',*,*,#400,.T.);
#527=ORIENTED_EDGE('',*,*,#399,.T.);
#528=ORIENTED_EDGE('',*,*,#401,.T.);
#529=ORIENTED_EDGE('',*,*,#378,.F.);
#530=ORIENTED_EDGE('',*,*,#381,.F.);
#531=ORIENTED_EDGE('',*,*,#402,.T.);
#532=ORIENTED_EDGE('',*,*,#394,.F.);
#533=ORIENTED_EDGE('',*,*,#397,.F.);
#534=ORIENTED_EDGE('',*,*,#400,.F.);
#535=ORIENTED_EDGE('',*,*,#401,.F.);
#536=ORIENTED_EDGE('',*,*,#398,.T.);
#537=ORIENTED_EDGE('',*,*,#395,.T.);
#538=ORIENTED_EDGE('',*,*,#379,.F.);
#539=ORIENTED_EDGE('',*,*,#390,.F.);
#540=ORIENTED_EDGE('',*,*,#403,.T.);
#541=ORIENTED_EDGE('',*,*,#404,.F.);
#542=ORIENTED_EDGE('',*,*,#403,.F.);
#543=ORIENTED_EDGE('',*,*,#391,.F.);
#544=ORIENTED_EDGE('',*,*,#405,.T.);
#545=ORIENTED_EDGE('',*,*,#406,.F.);
#546=ORIENTED_EDGE('',*,*,#405,.F.);
#547=ORIENTED_EDGE('',*,*,#392,.F.);
#548=ORIENTED_EDGE('',*,*,#407,.T.);
#549=ORIENTED_EDGE('',*,*,#408,.F.);
#550=ORIENTED_EDGE('',*,*,#407,.F.);
#551=ORIENTED_EDGE('',*,*,#393,.F.);
#552=ORIENTED_EDGE('',*,*,#409,.T.);
#553=ORIENTED_EDGE('',*,*,#410,.F.);
#554=ORIENTED_EDGE('',*,*,#409,.F.);
#555=ORIENTED_EDGE('',*,*,#411,.T.);
#556=ORIENTED_EDGE('',*,*,#412,.T.);
#557=ORIENTED_EDGE('',*,*,#402,.F.);
#558=ORIENTED_EDGE('',*,*,#413,.F.);
#559=ORIENTED_EDGE('',*,*,#414,.F.);
#560=ORIENTED_EDGE('',*,*,#413,.T.);
#561=ORIENTED_EDGE('',*,*,#389,.F.);
#562=ORIENTED_EDGE('',*,*,#415,.F.);
#563=ORIENTED_EDGE('',*,*,#416,.T.);
#564=ORIENTED_EDGE('',*,*,#415,.T.);
#565=ORIENTED_EDGE('',*,*,#388,.F.);
#566=ORIENTED_EDGE('',*,*,#417,.F.);
#567=ORIENTED_EDGE('',*,*,#418,.F.);
#568=ORIENTED_EDGE('',*,*,#417,.T.);
#569=ORIENTED_EDGE('',*,*,#387,.F.);
#570=ORIENTED_EDGE('',*,*,#419,.F.);
#571=ORIENTED_EDGE('',*,*,#420,.T.);
#572=ORIENTED_EDGE('',*,*,#419,.T.);
#573=ORIENTED_EDGE('',*,*,#386,.F.);
#574=ORIENTED_EDGE('',*,*,#421,.F.);
#575=ORIENTED_EDGE('',*,*,#422,.F.);
#576=ORIENTED_EDGE('',*,*,#421,.T.);
#577=ORIENTED_EDGE('',*,*,#385,.F.);
#578=ORIENTED_EDGE('',*,*,#423,.F.);
#579=ORIENTED_EDGE('',*,*,#424,.T.);
#580=ORIENTED_EDGE('',*,*,#423,.T.);
#581=ORIENTED_EDGE('',*,*,#384,.F.);
#582=ORIENTED_EDGE('',*,*,#425,.F.);
#583=ORIENTED_EDGE('',*,*,#426,.F.);
#584=ORIENTED_EDGE('',*,*,#425,.T.);
#585=ORIENTED_EDGE('',*,*,#383,.F.);
#586=ORIENTED_EDGE('',*,*,#412,.F.);
#587=ORIENTED_EDGE('',*,*,#426,.T.);
#588=ORIENTED_EDGE('',*,*,#411,.F.);
#589=ORIENTED_EDGE('',*,*,#414,.T.);
#590=ORIENTED_EDGE('',*,*,#416,.F.);
#591=ORIENTED_EDGE('',*,*,#418,.T.);
#592=ORIENTED_EDGE('',*,*,#420,.F.);
#593=ORIENTED_EDGE('',*,*,#422,.T.);
#594=ORIENTED_EDGE('',*,*,#424,.F.);
#595=ORIENTED_EDGE('',*,*,#410,.T.);
#596=ORIENTED_EDGE('',*,*,#408,.T.);
#597=ORIENTED_EDGE('',*,*,#406,.T.);
#598=ORIENTED_EDGE('',*,*,#404,.T.);
#599=CYLINDRICAL_SURFACE('',#646,2.25);
#600=CYLINDRICAL_SURFACE('',#678,1.6);
#601=CYLINDRICAL_SURFACE('',#680,1.6);
#602=CYLINDRICAL_SURFACE('',#682,1.6);
#603=CYLINDRICAL_SURFACE('',#684,1.6);
#604=CYLINDRICAL_SURFACE('',#687,3.2);
#605=CYLINDRICAL_SURFACE('',#690,3.2);
#606=CYLINDRICAL_SURFACE('',#693,3.2);
#607=CYLINDRICAL_SURFACE('',#696,3.2);
#608=ADVANCED_FACE('',(#52),#599,.T.);
#609=ADVANCED_FACE('',(#53),#26,.T.);
#610=ADVANCED_FACE('',(#54),#27,.T.);
#611=ADVANCED_FACE('',(#55),#28,.T.);
#612=ADVANCED_FACE('',(#56),#29,.T.);
#613=ADVANCED_FACE('',(#57),#30,.T.);
#614=ADVANCED_FACE('',(#58),#31,.T.);
#615=ADVANCED_FACE('',(#59),#32,.T.);
#616=ADVANCED_FACE('',(#60),#33,.T.);
#617=ADVANCED_FACE('',(#61),#34,.T.);
#618=ADVANCED_FACE('',(#62),#35,.T.);
#619=ADVANCED_FACE('',(#63),#36,.T.);
#620=ADVANCED_FACE('',(#64),#37,.T.);
#621=ADVANCED_FACE('',(#65,#17),#38,.T.);
#622=ADVANCED_FACE('',(#66),#39,.F.);
#623=ADVANCED_FACE('',(#67),#40,.T.);
#624=ADVANCED_FACE('',(#68,#18,#19,#20,#21),#41,.F.);
#625=ADVANCED_FACE('',(#69),#42,.T.);
#626=ADVANCED_FACE('',(#70),#43,.T.);
#627=ADVANCED_FACE('',(#71),#44,.T.);
#628=ADVANCED_FACE('',(#72),#45,.T.);
#629=ADVANCED_FACE('',(#73),#46,.T.);
#630=ADVANCED_FACE('',(#74),#600,.F.);
#631=ADVANCED_FACE('',(#75),#601,.F.);
#632=ADVANCED_FACE('',(#76),#602,.F.);
#633=ADVANCED_FACE('',(#77),#603,.F.);
#634=ADVANCED_FACE('',(#78),#47,.T.);
#635=ADVANCED_FACE('',(#79),#604,.T.);
#636=ADVANCED_FACE('',(#80),#48,.T.);
#637=ADVANCED_FACE('',(#81),#605,.T.);
#638=ADVANCED_FACE('',(#82),#49,.T.);
#639=ADVANCED_FACE('',(#83),#606,.T.);
#640=ADVANCED_FACE('',(#84),#50,.T.);
#641=ADVANCED_FACE('',(#85),#607,.T.);
#642=ADVANCED_FACE('',(#86,#22,#23,#24,#25),#51,.T.);
#643=CLOSED_SHELL('',(#608,#609,#610,#611,#612,#613,#614,#615,#616,#617,
#618,#619,#620,#621,#622));
#644=CLOSED_SHELL('',(#623,#624,#625,#626,#627,#628,#629,#630,#631,#632,
#633,#634,#635,#636,#637,#638,#639,#640,#641,#642));
#645=AXIS2_PLACEMENT_3D('',#875,#699,#700);
#646=AXIS2_PLACEMENT_3D('',#876,#701,#702);
#647=AXIS2_PLACEMENT_3D('',#878,#703,#704);
#648=AXIS2_PLACEMENT_3D('',#881,#706,#707);
#649=AXIS2_PLACEMENT_3D('',#882,#708,#709);
#650=AXIS2_PLACEMENT_3D('',#883,#710,#711);
#651=AXIS2_PLACEMENT_3D('',#900,#720,#721);
#652=AXIS2_PLACEMENT_3D('',#909,#726,#727);
#653=AXIS2_PLACEMENT_3D('',#912,#730,#731);
#654=AXIS2_PLACEMENT_3D('',#915,#734,#735);
#655=AXIS2_PLACEMENT_3D('',#916,#736,#737);
#656=AXIS2_PLACEMENT_3D('',#922,#741,#742);
#657=AXIS2_PLACEMENT_3D('',#926,#745,#746);
#658=AXIS2_PLACEMENT_3D('',#934,#751,#752);
#659=AXIS2_PLACEMENT_3D('',#940,#756,#757);
#660=AXIS2_PLACEMENT_3D('',#946,#761,#762);
#661=AXIS2_PLACEMENT_3D('',#949,#765,#766);
#662=AXIS2_PLACEMENT_3D('',#950,#767,#768);
#663=AXIS2_PLACEMENT_3D('',#951,#769,#770);
#664=AXIS2_PLACEMENT_3D('',#960,#775,#776);
#665=AXIS2_PLACEMENT_3D('',#966,#779,#780);
#666=AXIS2_PLACEMENT_3D('',#970,#782,#783);
#667=AXIS2_PLACEMENT_3D('',#974,#785,#786);
#668=AXIS2_PLACEMENT_3D('',#977,#788,#789);
#669=AXIS2_PLACEMENT_3D('',#979,#790,#791);
#670=AXIS2_PLACEMENT_3D('',#981,#792,#793);
#671=AXIS2_PLACEMENT_3D('',#983,#794,#795);
#672=AXIS2_PLACEMENT_3D('',#985,#796,#797);
#673=AXIS2_PLACEMENT_3D('',#986,#798,#799);
#674=AXIS2_PLACEMENT_3D('',#992,#803,#804);
#675=AXIS2_PLACEMENT_3D('',#998,#808,#809);
#676=AXIS2_PLACEMENT_3D('',#1001,#812,#813);
#677=AXIS2_PLACEMENT_3D('',#1003,#815,#816);
#678=AXIS2_PLACEMENT_3D('',#1004,#817,#818);
#679=AXIS2_PLACEMENT_3D('',#1007,#820,#821);
#680=AXIS2_PLACEMENT_3D('',#1008,#822,#823);
#681=AXIS2_PLACEMENT_3D('',#1011,#825,#826);
#682=AXIS2_PLACEMENT_3D('',#1012,#827,#828);
#683=AXIS2_PLACEMENT_3D('',#1015,#830,#831);
#684=AXIS2_PLACEMENT_3D('',#1016,#832,#833);
#685=AXIS2_PLACEMENT_3D('',#1019,#835,#836);
#686=AXIS2_PLACEMENT_3D('',#1020,#837,#838);
#687=AXIS2_PLACEMENT_3D('',#1026,#842,#843);
#688=AXIS2_PLACEMENT_3D('',#1028,#844,#845);
#689=AXIS2_PLACEMENT_3D('',#1030,#847,#848);
#690=AXIS2_PLACEMENT_3D('',#1034,#851,#852);
#691=AXIS2_PLACEMENT_3D('',#1036,#853,#854);
#692=AXIS2_PLACEMENT_3D('',#1038,#856,#857);
#693=AXIS2_PLACEMENT_3D('',#1042,#860,#861);
#694=AXIS2_PLACEMENT_3D('',#1044,#862,#863);
#695=AXIS2_PLACEMENT_3D('',#1046,#865,#866);
#696=AXIS2_PLACEMENT_3D('',#1050,#869,#870);
#697=AXIS2_PLACEMENT_3D('',#1051,#871,#872);
#698=AXIS2_PLACEMENT_3D('',#1052,#873,#874);
#699=DIRECTION('axis',(0.,0.,1.));
#700=DIRECTION('refdir',(1.,0.,0.));
#701=DIRECTION('center_axis',(0.,0.,1.));
#702=DIRECTION('ref_axis',(2.46716227694479E-16,-1.,0.));
#703=DIRECTION('center_axis',(0.,0.,1.));
#704=DIRECTION('ref_axis',(2.46716227694479E-16,-1.,0.));
#705=DIRECTION('',(0.,0.,-1.));
#706=DIRECTION('center_axis',(0.,0.,-1.));
#707=DIRECTION('ref_axis',(2.46716227694479E-16,-1.,0.));
#708=DIRECTION('center_axis',(0.,0.,1.));
#709=DIRECTION('ref_axis',(1.,0.,0.));
#710=DIRECTION('center_axis',(-1.,0.,0.));
#711=DIRECTION('ref_axis',(0.,-1.,0.));
#712=DIRECTION('',(0.,0.,1.));
#713=DIRECTION('',(0.,1.,0.));
#714=DIRECTION('',(0.,0.,1.));
#715=DIRECTION('',(0.,-1.,0.));
#716=DIRECTION('',(0.,0.,1.));
#717=DIRECTION('',(0.,-1.,0.));
#718=DIRECTION('',(0.,0.,1.));
#719=DIRECTION('',(0.,-1.,0.));
#720=DIRECTION('center_axis',(1.,0.,0.));
#721=DIRECTION('ref_axis',(0.,1.,0.));
#722=DIRECTION('',(0.,1.,0.));
#723=DIRECTION('',(0.,0.,1.));
#724=DIRECTION('',(0.,1.,0.));
#725=DIRECTION('',(0.,0.,1.));
#726=DIRECTION('center_axis',(0.,-1.,0.));
#727=DIRECTION('ref_axis',(1.,0.,0.));
#728=DIRECTION('',(1.,0.,0.));
#729=DIRECTION('',(1.,0.,0.));
#730=DIRECTION('center_axis',(-5.35047240783211E-16,1.,0.));
#731=DIRECTION('ref_axis',(-1.,-5.35047240783211E-16,0.));
#732=DIRECTION('',(-1.,-5.35047240783211E-16,0.));
#733=DIRECTION('',(-1.,-5.35047240783211E-16,0.));
#734=DIRECTION('center_axis',(0.,0.,1.));
#735=DIRECTION('ref_axis',(1.,0.,0.));
#736=DIRECTION('center_axis',(6.47360364212923E-16,-1.,0.));
#737=DIRECTION('ref_axis',(1.,6.47360364212923E-16,0.));
#738=DIRECTION('',(1.,6.47360364212923E-16,0.));
#739=DIRECTION('',(1.,6.47360364212923E-16,0.));
#740=DIRECTION('',(0.,0.,1.));
#741=DIRECTION('center_axis',(0.,0.,1.));
#742=DIRECTION('ref_axis',(1.,0.,0.));
#743=DIRECTION('',(-1.,-3.23680182106461E-16,0.));
#744=DIRECTION('',(0.,1.,0.));
#745=DIRECTION('center_axis',(1.,0.,0.));
#746=DIRECTION('ref_axis',(0.,1.,0.));
#747=DIRECTION('',(0.,0.,1.));
#748=DIRECTION('',(0.,1.,0.));
#749=DIRECTION('',(0.,0.,1.));
#750=DIRECTION('',(0.,1.,0.));
#751=DIRECTION('center_axis',(0.,-1.,0.));
#752=DIRECTION('ref_axis',(1.,0.,0.));
#753=DIRECTION('',(1.,0.,0.));
#754=DIRECTION('',(1.,0.,0.));
#755=DIRECTION('',(0.,0.,1.));
#756=DIRECTION('center_axis',(-1.,-1.04344269231688E-16,0.));
#757=DIRECTION('ref_axis',(1.04344269231688E-16,-1.,0.));
#758=DIRECTION('',(1.04344269231688E-16,-1.,0.));
#759=DIRECTION('',(1.04344269231688E-16,-1.,0.));
#760=DIRECTION('',(0.,0.,1.));
#761=DIRECTION('center_axis',(0.,1.,0.));
#762=DIRECTION('ref_axis',(-1.,0.,0.));
#763=DIRECTION('',(-1.,0.,0.));
#764=DIRECTION('',(-1.,0.,0.));
#765=DIRECTION('center_axis',(0.,0.,1.));
#766=DIRECTION('ref_axis',(1.,0.,0.));
#767=DIRECTION('center_axis',(0.,0.,1.));
#768=DIRECTION('ref_axis',(1.,0.,0.));
#769=DIRECTION('center_axis',(1.,0.,0.));
#770=DIRECTION('ref_axis',(0.,0.,-1.));
#771=DIRECTION('',(0.,1.,0.));
#772=DIRECTION('',(0.,0.,-1.));
#773=DIRECTION('',(0.,1.,0.));
#774=DIRECTION('',(0.,0.,1.));
#775=DIRECTION('center_axis',(0.,0.,1.));
#776=DIRECTION('ref_axis',(1.,0.,0.));
#777=DIRECTION('',(1.,0.,0.));
#778=DIRECTION('',(-1.,0.,0.));
#779=DIRECTION('center_axis',(0.,0.,-1.));
#780=DIRECTION('ref_axis',(0.,1.,0.));
#781=DIRECTION('',(1.,0.,0.));
#782=DIRECTION('center_axis',(0.,0.,-1.));
#783=DIRECTION('ref_axis',(1.,0.,0.));
#784=DIRECTION('',(0.,-1.,0.));
#785=DIRECTION('center_axis',(0.,0.,-1.));
#786=DIRECTION('ref_axis',(0.,-1.,0.));
#787=DIRECTION('',(-1.,0.,0.));
#788=DIRECTION('center_axis',(0.,0.,-1.));
#789=DIRECTION('ref_axis',(-1.,0.,0.));
#790=DIRECTION('center_axis',(0.,0.,1.));
#791=DIRECTION('ref_axis',(1.,0.,0.));
#792=DIRECTION('center_axis',(0.,0.,1.));
#793=DIRECTION('ref_axis',(1.,0.,0.));
#794=DIRECTION('center_axis',(0.,0.,1.));
#795=DIRECTION('ref_axis',(1.,0.,0.));
#796=DIRECTION('center_axis',(0.,0.,1.));
#797=DIRECTION('ref_axis',(1.,0.,0.));
#798=DIRECTION('center_axis',(0.,1.,0.));
#799=DIRECTION('ref_axis',(1.,0.,0.));
#800=DIRECTION('',(1.,0.,0.));
#801=DIRECTION('',(1.,0.,0.));
#802=DIRECTION('',(0.,0.,-1.));
#803=DIRECTION('center_axis',(-1.,0.,0.));
#804=DIRECTION('ref_axis',(0.,1.,0.));
#805=DIRECTION('',(0.,1.,0.));
#806=DIRECTION('',(0.,1.,0.));
#807=DIRECTION('',(0.,0.,-1.));
#808=DIRECTION('center_axis',(0.,-1.,0.));
#809=DIRECTION('ref_axis',(-1.,0.,0.));
#810=DIRECTION('',(-1.,0.,0.));
#811=DIRECTION('',(1.,0.,0.));
#812=DIRECTION('center_axis',(0.,0.,1.));
#813=DIRECTION('ref_axis',(1.,0.,0.));
#814=DIRECTION('',(0.,1.,0.));
#815=DIRECTION('center_axis',(0.,0.,-1.));
#816=DIRECTION('ref_axis',(-1.,0.,0.));
#817=DIRECTION('center_axis',(0.,0.,-1.));
#818=DIRECTION('ref_axis',(1.,0.,0.));
#819=DIRECTION('',(0.,0.,1.));
#820=DIRECTION('center_axis',(0.,0.,-1.));
#821=DIRECTION('ref_axis',(1.,0.,0.));
#822=DIRECTION('center_axis',(0.,0.,-1.));
#823=DIRECTION('ref_axis',(1.,0.,0.));
#824=DIRECTION('',(0.,0.,1.));
#825=DIRECTION('center_axis',(0.,0.,-1.));
#826=DIRECTION('ref_axis',(1.,0.,0.));
#827=DIRECTION('center_axis',(0.,0.,-1.));
#828=DIRECTION('ref_axis',(1.,0.,0.));
#829=DIRECTION('',(0.,0.,1.));
#830=DIRECTION('center_axis',(0.,0.,-1.));
#831=DIRECTION('ref_axis',(1.,0.,0.));
#832=DIRECTION('center_axis',(0.,0.,-1.));
#833=DIRECTION('ref_axis',(1.,0.,0.));
#834=DIRECTION('',(0.,0.,1.));
#835=DIRECTION('center_axis',(0.,0.,-1.));
#836=DIRECTION('ref_axis',(1.,0.,0.));
#837=DIRECTION('center_axis',(-1.,0.,0.));
#838=DIRECTION('ref_axis',(0.,1.,0.));
#839=DIRECTION('',(0.,1.,0.));
#840=DIRECTION('',(0.,0.,-1.));
#841=DIRECTION('',(0.,0.,-1.));
#842=DIRECTION('center_axis',(0.,0.,-1.));
#843=DIRECTION('ref_axis',(-1.,0.,0.));
#844=DIRECTION('center_axis',(0.,0.,1.));
#845=DIRECTION('ref_axis',(-1.,0.,0.));
#846=DIRECTION('',(0.,0.,-1.));
#847=DIRECTION('center_axis',(0.,-1.,0.));
#848=DIRECTION('ref_axis',(-1.,0.,0.));
#849=DIRECTION('',(-1.,0.,0.));
#850=DIRECTION('',(0.,0.,-1.));
#851=DIRECTION('center_axis',(0.,0.,-1.));
#852=DIRECTION('ref_axis',(0.,-1.,0.));
#853=DIRECTION('center_axis',(0.,0.,1.));
#854=DIRECTION('ref_axis',(0.,-1.,0.));
#855=DIRECTION('',(0.,0.,-1.));
#856=DIRECTION('center_axis',(1.,0.,0.));
#857=DIRECTION('ref_axis',(0.,-1.,0.));
#858=DIRECTION('',(0.,-1.,0.));
#859=DIRECTION('',(0.,0.,-1.));
#860=DIRECTION('center_axis',(0.,0.,-1.));
#861=DIRECTION('ref_axis',(1.,0.,0.));
#862=DIRECTION('center_axis',(0.,0.,1.));
#863=DIRECTION('ref_axis',(1.,0.,0.));
#864=DIRECTION('',(0.,0.,-1.));
#865=DIRECTION('center_axis',(0.,1.,0.));
#866=DIRECTION('ref_axis',(1.,0.,0.));
#867=DIRECTION('',(1.,0.,0.));
#868=DIRECTION('',(0.,0.,-1.));
#869=DIRECTION('center_axis',(0.,0.,-1.));
#870=DIRECTION('ref_axis',(0.,1.,0.));
#871=DIRECTION('center_axis',(0.,0.,1.));
#872=DIRECTION('ref_axis',(0.,1.,0.));
#873=DIRECTION('center_axis',(0.,0.,1.));
#874=DIRECTION('ref_axis',(1.,0.,0.));
#875=CARTESIAN_POINT('',(0.,0.,0.));
#876=CARTESIAN_POINT('Origin',(4.15728440074163,-22.2559440792187,0.));
#877=CARTESIAN_POINT('',(4.15728440074163,-20.0059440792187,4.52));
#878=CARTESIAN_POINT('Origin',(4.15728440074163,-22.2559440792187,4.52));
#879=CARTESIAN_POINT('',(4.15728440074163,-20.0059440792187,3.47));
#880=CARTESIAN_POINT('',(4.15728440074163,-20.0059440792187,0.));
#881=CARTESIAN_POINT('Origin',(4.15728440074163,-22.2559440792187,3.47));
#882=CARTESIAN_POINT('Origin',(4.15728440074163,-22.2559440792187,4.52));
#883=CARTESIAN_POINT('Origin',(14.356509985687,-18.0734103813643,0.));
#884=CARTESIAN_POINT('',(14.356509985687,-19.0234103813643,0.));
#885=CARTESIAN_POINT('',(14.356509985687,-19.0234103813643,0.15));
#886=CARTESIAN_POINT('',(14.356509985687,-19.0234103813643,0.));
#887=CARTESIAN_POINT('',(14.356509985687,-25.6234103813643,0.15));
#888=CARTESIAN_POINT('',(14.356509985687,-18.0734103813643,0.15));
#889=CARTESIAN_POINT('',(14.356509985687,-25.6234103813643,0.));
#890=CARTESIAN_POINT('',(14.356509985687,-25.6234103813643,0.));
#891=CARTESIAN_POINT('',(14.356509985687,-26.6234103813643,0.));
#892=CARTESIAN_POINT('',(14.356509985687,-18.0734103813643,0.));
#893=CARTESIAN_POINT('',(14.356509985687,-26.6234103813643,0.52));
#894=CARTESIAN_POINT('',(14.356509985687,-26.6234103813643,0.));
#895=CARTESIAN_POINT('',(14.356509985687,-18.0734103813643,0.52));
#896=CARTESIAN_POINT('',(14.356509985687,-18.0734103813643,0.52));
#897=CARTESIAN_POINT('',(14.356509985687,-18.0734103813643,0.));
#898=CARTESIAN_POINT('',(14.356509985687,-18.0734103813643,0.));
#899=CARTESIAN_POINT('',(14.356509985687,-18.0734103813643,0.));
#900=CARTESIAN_POINT('Origin',(18.506509985687,-26.6234103813643,0.));
#901=CARTESIAN_POINT('',(18.506509985687,-26.6234103813643,0.));
#902=CARTESIAN_POINT('',(18.506509985687,-18.0734103813643,0.));
#903=CARTESIAN_POINT('',(18.506509985687,-26.6234103813643,0.));
#904=CARTESIAN_POINT('',(18.506509985687,-18.0734103813643,0.52));
#905=CARTESIAN_POINT('',(18.506509985687,-18.0734103813643,0.));
#906=CARTESIAN_POINT('',(18.506509985687,-26.6234103813643,0.52));
#907=CARTESIAN_POINT('',(18.506509985687,-26.6234103813643,0.52));
#908=CARTESIAN_POINT('',(18.506509985687,-26.6234103813643,0.));
#909=CARTESIAN_POINT('Origin',(14.356509985687,-26.6234103813643,0.));
#910=CARTESIAN_POINT('',(14.356509985687,-26.6234103813643,0.));
#911=CARTESIAN_POINT('',(14.356509985687,-26.6234103813643,0.52));
#912=CARTESIAN_POINT('Origin',(18.506509985687,-18.0734103813643,0.));
#913=CARTESIAN_POINT('',(18.506509985687,-18.0734103813643,0.));
#914=CARTESIAN_POINT('',(18.506509985687,-18.0734103813643,0.52));
#915=CARTESIAN_POINT('Origin',(16.431509985687,-22.3484103813643,0.52));
#916=CARTESIAN_POINT('Origin',(7.49650998568708,-25.6234103813643,0.));
#917=CARTESIAN_POINT('',(7.49650998568708,-25.6234103813643,0.));
#918=CARTESIAN_POINT('',(7.49650998568708,-25.6234103813643,0.));
#919=CARTESIAN_POINT('',(7.49650998568708,-25.6234103813643,0.15));
#920=CARTESIAN_POINT('',(7.49650998568708,-25.6234103813643,0.15));
#921=CARTESIAN_POINT('',(7.49650998568708,-25.6234103813643,0.));
#922=CARTESIAN_POINT('Origin',(10.9265099856871,-22.3234103813643,0.15));
#923=CARTESIAN_POINT('',(7.49650998568708,-19.0234103813643,0.15));
#924=CARTESIAN_POINT('',(14.356509985687,-19.0234103813643,0.15));
#925=CARTESIAN_POINT('',(7.49650998568708,-23.9984103813643,0.15));
#926=CARTESIAN_POINT('Origin',(7.49650998568708,-25.6734103813643,0.));
#927=CARTESIAN_POINT('',(7.49650998568708,-19.0234103813643,3.47));
#928=CARTESIAN_POINT('',(7.49650998568708,-19.0234103813643,0.));
#929=CARTESIAN_POINT('',(7.49650998568708,-25.6734103813643,3.47));
#930=CARTESIAN_POINT('',(7.49650998568708,-25.6734103813643,3.47));
#931=CARTESIAN_POINT('',(7.49650998568708,-25.6734103813643,0.));
#932=CARTESIAN_POINT('',(7.49650998568708,-25.6734103813643,0.));
#933=CARTESIAN_POINT('',(7.49650998568708,-25.6734103813643,0.));
#934=CARTESIAN_POINT('Origin',(0.846509985687114,-25.6734103813643,0.));
#935=CARTESIAN_POINT('',(0.846509985687114,-25.6734103813643,0.));
#936=CARTESIAN_POINT('',(0.846509985687114,-25.6734103813643,0.));
#937=CARTESIAN_POINT('',(0.846509985687114,-25.6734103813643,3.47));
#938=CARTESIAN_POINT('',(0.846509985687114,-25.6734103813643,3.47));
#939=CARTESIAN_POINT('',(0.846509985687114,-25.6734103813643,0.));
#940=CARTESIAN_POINT('Origin',(0.846509985687113,-19.0234103813643,0.));
#941=CARTESIAN_POINT('',(0.846509985687114,-19.0234103813643,0.));
#942=CARTESIAN_POINT('',(0.846509985687113,-19.0234103813643,0.));
#943=CARTESIAN_POINT('',(0.846509985687114,-19.0234103813643,3.47));
#944=CARTESIAN_POINT('',(0.846509985687113,-19.0234103813643,3.47));
#945=CARTESIAN_POINT('',(0.846509985687114,-19.0234103813643,0.));
#946=CARTESIAN_POINT('Origin',(7.49650998568708,-19.0234103813643,0.));
#947=CARTESIAN_POINT('',(7.49650998568708,-19.0234103813643,0.));
#948=CARTESIAN_POINT('',(7.49650998568708,-19.0234103813643,3.47));
#949=CARTESIAN_POINT('Origin',(4.17150998568709,-22.3484103813643,3.47));
#950=CARTESIAN_POINT('Origin',(4.17150998568709,-22.3484103813643,0.));
#951=CARTESIAN_POINT('Origin',(0.181313382700332,-12.9458251296412,-1.6));
#952=CARTESIAN_POINT('',(0.181313382700332,-31.5458251296412,-1.6));
#953=CARTESIAN_POINT('',(0.181313382700332,-12.9458251296412,-1.6));
#954=CARTESIAN_POINT('',(0.181313382700332,-17.5958251296412,-1.6));
#955=CARTESIAN_POINT('',(0.181313382700332,-31.5458251296412,-3.2));
#956=CARTESIAN_POINT('',(0.181313382700332,-31.5458251296412,-1.6));
#957=CARTESIAN_POINT('',(0.181313382700332,-12.9458251296412,-3.2));
#958=CARTESIAN_POINT('',(0.181313382700332,-31.5458251296412,-3.2));
#959=CARTESIAN_POINT('',(0.181313382700332,-12.9458251296412,-1.6));
#960=CARTESIAN_POINT('Origin',(8.68131338270033,-22.2458251296412,-1.6));
#961=CARTESIAN_POINT('',(-3.31868661729967,-31.5458251296412,-1.6));
#962=CARTESIAN_POINT('',(2.68131338270033,-31.5458251296412,-1.6));
#963=CARTESIAN_POINT('',(-3.31868661729967,-12.9458251296412,-1.6));
#964=CARTESIAN_POINT('',(2.68131338270033,-12.9458251296412,-1.6));
#965=CARTESIAN_POINT('',(-0.118686617299668,-9.74582512964121,-1.6));
#966=CARTESIAN_POINT('Origin',(-0.118686617299667,-12.9458251296412,-1.6));
#967=CARTESIAN_POINT('',(17.4813133827003,-9.74582512964121,-1.6));
#968=CARTESIAN_POINT('',(-0.118686617299667,-9.74582512964121,-1.6));
#969=CARTESIAN_POINT('',(20.6813133827003,-12.9458251296412,-1.6));
#970=CARTESIAN_POINT('Origin',(17.4813133827003,-12.9458251296412,-1.6));
#971=CARTESIAN_POINT('',(20.6813133827003,-31.5458251296412,-1.6));
#972=CARTESIAN_POINT('',(20.6813133827003,-12.9458251296412,-1.6));
#973=CARTESIAN_POINT('',(17.4813133827003,-34.7458251296412,-1.6));
#974=CARTESIAN_POINT('Origin',(17.4813133827003,-31.5458251296412,-1.6));
#975=CARTESIAN_POINT('',(-0.118686617299668,-34.7458251296412,-1.6));
#976=CARTESIAN_POINT('',(17.4813133827003,-34.7458251296412,-1.6));
#977=CARTESIAN_POINT('Origin',(-0.118686617299667,-31.5458251296412,-1.6));
#978=CARTESIAN_POINT('',(6.38131338270033,-12.9458251296412,-1.6));
#979=CARTESIAN_POINT('Origin',(7.98131338270033,-12.9458251296412,-1.6));
#980=CARTESIAN_POINT('',(6.38131338270034,-31.5458251296412,-1.6));
#981=CARTESIAN_POINT('Origin',(7.98131338270033,-31.5458251296412,-1.6));
#982=CARTESIAN_POINT('',(15.8813133827003,-31.5458251296412,-1.6));
#983=CARTESIAN_POINT('Origin',(17.4813133827003,-31.5458251296412,-1.6));
#984=CARTESIAN_POINT('',(15.8813133827003,-12.9458251296412,-1.6));
#985=CARTESIAN_POINT('Origin',(17.4813133827003,-12.9458251296412,-1.6));
#986=CARTESIAN_POINT('Origin',(-4.34810727018866,-12.9458251296412,-1.6));
#987=CARTESIAN_POINT('',(-4.34810727018866,-12.9458251296412,-1.6));
#988=CARTESIAN_POINT('',(-4.34810727018866,-12.9458251296412,-1.6));
#989=CARTESIAN_POINT('',(-4.34810727018866,-12.9458251296412,-3.2));
#990=CARTESIAN_POINT('',(-4.34810727018866,-12.9458251296412,-3.2));
#991=CARTESIAN_POINT('',(-4.34810727018866,-12.9458251296412,-1.6));
#992=CARTESIAN_POINT('Origin',(-4.34810727018866,-31.5458251296412,-1.6));
#993=CARTESIAN_POINT('',(-4.34810727018866,-31.5458251296412,-1.6));
#994=CARTESIAN_POINT('',(-4.34810727018866,-31.5458251296412,-1.6));
#995=CARTESIAN_POINT('',(-4.34810727018866,-31.5458251296412,-3.2));
#996=CARTESIAN_POINT('',(-4.34810727018866,-31.5458251296412,-3.2));
#997=CARTESIAN_POINT('',(-4.34810727018866,-31.5458251296412,-1.6));
#998=CARTESIAN_POINT('Origin',(-3.31868661729967,-31.5458251296412,-1.6));
#999=CARTESIAN_POINT('',(-3.31868661729967,-31.5458251296412,-1.6));
#1000=CARTESIAN_POINT('',(-3.31868661729967,-31.5458251296412,-3.2));
#1001=CARTESIAN_POINT('Origin',(-3.83339694374417,-22.2458251296412,-1.6));
#1002=CARTESIAN_POINT('',(-3.31868661729967,-31.5458251296412,-1.6));
#1003=CARTESIAN_POINT('Origin',(-3.83339694374417,-22.2458251296412,-3.2));
#1004=CARTESIAN_POINT('Origin',(7.98131338270033,-12.9458251296412,0.));
#1005=CARTESIAN_POINT('',(6.38131338270033,-12.9458251296412,0.));
#1006=CARTESIAN_POINT('',(6.38131338270033,-12.9458251296412,0.));
#1007=CARTESIAN_POINT('Origin',(7.98131338270033,-12.9458251296412,0.));
#1008=CARTESIAN_POINT('Origin',(7.98131338270033,-31.5458251296412,0.));
#1009=CARTESIAN_POINT('',(6.38131338270034,-31.5458251296412,0.));
#1010=CARTESIAN_POINT('',(6.38131338270034,-31.5458251296412,0.));
#1011=CARTESIAN_POINT('Origin',(7.98131338270033,-31.5458251296412,0.));
#1012=CARTESIAN_POINT('Origin',(17.4813133827003,-31.5458251296412,0.));
#1013=CARTESIAN_POINT('',(15.8813133827003,-31.5458251296412,0.));
#1014=CARTESIAN_POINT('',(15.8813133827003,-31.5458251296412,0.));
#1015=CARTESIAN_POINT('Origin',(17.4813133827003,-31.5458251296412,0.));
#1016=CARTESIAN_POINT('Origin',(17.4813133827003,-12.9458251296412,0.));
#1017=CARTESIAN_POINT('',(15.8813133827003,-12.9458251296412,0.));
#1018=CARTESIAN_POINT('',(15.8813133827003,-12.9458251296412,0.));
#1019=CARTESIAN_POINT('Origin',(17.4813133827003,-12.9458251296412,0.));
#1020=CARTESIAN_POINT('Origin',(-3.31868661729967,-31.5458251296412,0.));
#1021=CARTESIAN_POINT('',(-3.31868661729967,-31.5458251296412,0.));
#1022=CARTESIAN_POINT('',(-3.31868661729967,-12.9458251296412,0.));
#1023=CARTESIAN_POINT('',(-3.31868661729967,-31.5458251296412,0.));
#1024=CARTESIAN_POINT('',(-3.31868661729967,-12.9458251296412,0.));
#1025=CARTESIAN_POINT('',(-3.31868661729967,-31.5458251296412,0.));
#1026=CARTESIAN_POINT('Origin',(-0.118686617299667,-31.5458251296412,0.));
#1027=CARTESIAN_POINT('',(-0.118686617299667,-34.7458251296412,0.));
#1028=CARTESIAN_POINT('Origin',(-0.118686617299667,-31.5458251296412,0.));
#1029=CARTESIAN_POINT('',(-0.118686617299667,-34.7458251296412,0.));
#1030=CARTESIAN_POINT('Origin',(17.4813133827003,-34.7458251296412,0.));
#1031=CARTESIAN_POINT('',(17.4813133827003,-34.7458251296412,0.));
#1032=CARTESIAN_POINT('',(17.4813133827003,-34.7458251296412,0.));
#1033=CARTESIAN_POINT('',(17.4813133827003,-34.7458251296412,0.));
#1034=CARTESIAN_POINT('Origin',(17.4813133827003,-31.5458251296412,0.));
#1035=CARTESIAN_POINT('',(20.6813133827003,-31.5458251296412,0.));
#1036=CARTESIAN_POINT('Origin',(17.4813133827003,-31.5458251296412,0.));
#1037=CARTESIAN_POINT('',(20.6813133827003,-31.5458251296412,0.));
#1038=CARTESIAN_POINT('Origin',(20.6813133827003,-12.9458251296412,0.));
#1039=CARTESIAN_POINT('',(20.6813133827003,-12.9458251296412,0.));
#1040=CARTESIAN_POINT('',(20.6813133827003,-12.9458251296412,0.));
#1041=CARTESIAN_POINT('',(20.6813133827003,-12.9458251296412,0.));
#1042=CARTESIAN_POINT('Origin',(17.4813133827003,-12.9458251296412,0.));
#1043=CARTESIAN_POINT('',(17.4813133827003,-9.74582512964121,0.));
#1044=CARTESIAN_POINT('Origin',(17.4813133827003,-12.9458251296412,0.));
#1045=CARTESIAN_POINT('',(17.4813133827003,-9.74582512964121,0.));
#1046=CARTESIAN_POINT('Origin',(-0.118686617299667,-9.74582512964121,0.));
#1047=CARTESIAN_POINT('',(-0.118686617299667,-9.74582512964121,0.));
#1048=CARTESIAN_POINT('',(-0.118686617299667,-9.74582512964121,0.));
#1049=CARTESIAN_POINT('',(-0.118686617299667,-9.74582512964121,0.));
#1050=CARTESIAN_POINT('Origin',(-0.118686617299667,-12.9458251296412,0.));
#1051=CARTESIAN_POINT('Origin',(-0.118686617299667,-12.9458251296412,0.));
#1052=CARTESIAN_POINT('Origin',(8.68131338270033,-22.2458251296412,0.));
#1053=UNCERTAINTY_MEASURE_WITH_UNIT(LENGTH_MEASURE(0.01),#1057,
'DISTANCE_ACCURACY_VALUE',
'Maximum model space distance between geometric entities at asserted c
onnectivities');
#1054=UNCERTAINTY_MEASURE_WITH_UNIT(LENGTH_MEASURE(0.01),#1057,
'DISTANCE_ACCURACY_VALUE',
'Maximum model space distance between geometric entities at asserted c
onnectivities');
#1055=(
GEOMETRIC_REPRESENTATION_CONTEXT(3)
GLOBAL_UNCERTAINTY_ASSIGNED_CONTEXT((#1053))
GLOBAL_UNIT_ASSIGNED_CONTEXT((#1057,#1058,#1059))
REPRESENTATION_CONTEXT('','3D')
);
#1056=(
GEOMETRIC_REPRESENTATION_CONTEXT(3)
GLOBAL_UNCERTAINTY_ASSIGNED_CONTEXT((#1054))
GLOBAL_UNIT_ASSIGNED_CONTEXT((#1057,#1058,#1059))
REPRESENTATION_CONTEXT('','3D')
);
#1057=(
LENGTH_UNIT()
NAMED_UNIT(*)
SI_UNIT(.MILLI.,.METRE.)
);
#1058=(
NAMED_UNIT(*)
PLANE_ANGLE_UNIT()
SI_UNIT($,.RADIAN.)
);
#1059=(
NAMED_UNIT(*)
SI_UNIT($,.STERADIAN.)
SOLID_ANGLE_UNIT()
);
#1060=SHAPE_DEFINITION_REPRESENTATION(#1061,#1062);
#1061=PRODUCT_DEFINITION_SHAPE('',$,#1064);
#1062=SHAPE_REPRESENTATION('',(#645),#1055);
#1063=PRODUCT_DEFINITION_CONTEXT('part definition',#1068,'design');
#1064=PRODUCT_DEFINITION('Raspberry Pi Zero 2 W','CapHat v5',#1065,#1063);
#1065=PRODUCT_DEFINITION_FORMATION('',$,#1070);
#1066=PRODUCT_RELATED_PRODUCT_CATEGORY('CapHat v5','CapHat v5',(#1070));
#1067=APPLICATION_PROTOCOL_DEFINITION('international standard',
'automotive_design',2009,#1068);
#1068=APPLICATION_CONTEXT(
'Core Data for Automotive Mechanical Design Process');
#1069=PRODUCT_CONTEXT('part definition',#1068,'mechanical');
#1070=PRODUCT('Raspberry Pi Zero 2 W','CapHat v5','STEP AP214',(#1069));
#1071=PRESENTATION_STYLE_ASSIGNMENT((#1072));
#1072=SURFACE_STYLE_USAGE(.BOTH.,#1073);
#1073=SURFACE_SIDE_STYLE('',(#1074));
#1074=SURFACE_STYLE_FILL_AREA(#1075);
#1075=FILL_AREA_STYLE('Steel - Satin',(#1076));
#1076=FILL_AREA_STYLE_COLOUR('Steel - Satin',#1077);
#1077=COLOUR_RGB('Steel - Satin',0.627450980392157,0.627450980392157,0.627450980392157);
ENDSEC;
END-ISO-10303-21;
