ISO-10303-21;
HEADER;
/* Generated by software containing ST-Developer
 * from STEP Tools, Inc. (www.steptools.com) 
 */

FILE_DESCRIPTION(
/* description */ ('STEP AP214'),
/* implementation_level */ '2;1');

FILE_NAME(
/* name */ 'Prox.step',
/* time_stamp */ '2025-06-11T16:33:34-07:00',
/* author */ (''),
/* organization */ (''),
/* preprocessor_version */ 'ST-DEVELOPER v20.1',
/* originating_system */ 'Autodesk Translation Framework v14.10.0.0',
/* authorisation */ '');

FILE_SCHEMA (('AUTOMOTIVE_DESIGN { 1 0 10303 214 3 1 1 }'));
ENDSEC;

DATA;
#10=MECHANICAL_DESIGN_GEOMETRIC_PRESENTATION_REPRESENTATION('',(#13),#249);
#11=SHAPE_REPRESENTATION_RELATIONSHIP('SRR','None',#255,#12);
#12=ADVANCED_BREP_SHAPE_REPRESENTATION('',(#14),#248);
#13=STYLED_ITEM('',(#264),#14);
#14=MANIFOLD_SOLID_BREP('Prox',#153);
#15=FACE_BOUND('',#36,.T.);
#16=FACE_BOUND('',#37,.T.);
#17=FACE_BOUND('',#39,.T.);
#18=FACE_BOUND('',#40,.T.);
#19=PLANE('',#161);
#20=PLANE('',#162);
#21=PLANE('',#163);
#22=PLANE('',#164);
#23=PLANE('',#165);
#24=PLANE('',#166);
#25=FACE_OUTER_BOUND('',#33,.T.);
#26=FACE_OUTER_BOUND('',#34,.T.);
#27=FACE_OUTER_BOUND('',#35,.T.);
#28=FACE_OUTER_BOUND('',#38,.T.);
#29=FACE_OUTER_BOUND('',#41,.T.);
#30=FACE_OUTER_BOUND('',#42,.T.);
#31=FACE_OUTER_BOUND('',#43,.T.);
#32=FACE_OUTER_BOUND('',#44,.T.);
#33=EDGE_LOOP('',(#107,#108,#109,#110));
#34=EDGE_LOOP('',(#111,#112,#113,#114));
#35=EDGE_LOOP('',(#115,#116,#117,#118));
#36=EDGE_LOOP('',(#119));
#37=EDGE_LOOP('',(#120));
#38=EDGE_LOOP('',(#121,#122,#123,#124));
#39=EDGE_LOOP('',(#125));
#40=EDGE_LOOP('',(#126));
#41=EDGE_LOOP('',(#127,#128,#129,#130));
#42=EDGE_LOOP('',(#131,#132,#133,#134));
#43=EDGE_LOOP('',(#135,#136,#137,#138));
#44=EDGE_LOOP('',(#139,#140,#141,#142));
#45=LINE('',#212,#59);
#46=LINE('',#218,#60);
#47=LINE('',#223,#61);
#48=LINE('',#225,#62);
#49=LINE('',#227,#63);
#50=LINE('',#228,#64);
#51=LINE('',#232,#65);
#52=LINE('',#234,#66);
#53=LINE('',#236,#67);
#54=LINE('',#237,#68);
#55=LINE('',#239,#69);
#56=LINE('',#240,#70);
#57=LINE('',#242,#71);
#58=LINE('',#244,#72);
#59=VECTOR('',#173,1.025);
#60=VECTOR('',#180,0.85);
#61=VECTOR('',#185,10.);
#62=VECTOR('',#186,10.);
#63=VECTOR('',#187,10.);
#64=VECTOR('',#188,10.);
#65=VECTOR('',#191,10.);
#66=VECTOR('',#192,10.);
#67=VECTOR('',#193,10.);
#68=VECTOR('',#194,10.);
#69=VECTOR('',#197,10.);
#70=VECTOR('',#198,10.);
#71=VECTOR('',#201,10.);
#72=VECTOR('',#204,10.);
#73=CIRCLE('',#156,1.025);
#74=CIRCLE('',#157,1.025);
#75=CIRCLE('',#159,0.85);
#76=CIRCLE('',#160,0.85);
#77=VERTEX_POINT('',#209);
#78=VERTEX_POINT('',#211);
#79=VERTEX_POINT('',#215);
#80=VERTEX_POINT('',#217);
#81=VERTEX_POINT('',#221);
#82=VERTEX_POINT('',#222);
#83=VERTEX_POINT('',#224);
#84=VERTEX_POINT('',#226);
#85=VERTEX_POINT('',#230);
#86=VERTEX_POINT('',#231);
#87=VERTEX_POINT('',#233);
#88=VERTEX_POINT('',#235);
#89=EDGE_CURVE('',#77,#77,#73,.T.);
#90=EDGE_CURVE('',#77,#78,#45,.T.);
#91=EDGE_CURVE('',#78,#78,#74,.T.);
#92=EDGE_CURVE('',#79,#79,#75,.T.);
#93=EDGE_CURVE('',#79,#80,#46,.T.);
#94=EDGE_CURVE('',#80,#80,#76,.T.);
#95=EDGE_CURVE('',#81,#82,#47,.T.);
#96=EDGE_CURVE('',#83,#81,#48,.T.);
#97=EDGE_CURVE('',#84,#83,#49,.T.);
#98=EDGE_CURVE('',#82,#84,#50,.T.);
#99=EDGE_CURVE('',#85,#86,#51,.T.);
#100=EDGE_CURVE('',#86,#87,#52,.T.);
#101=EDGE_CURVE('',#87,#88,#53,.T.);
#102=EDGE_CURVE('',#88,#85,#54,.T.);
#103=EDGE_CURVE('',#85,#81,#55,.T.);
#104=EDGE_CURVE('',#86,#82,#56,.T.);
#105=EDGE_CURVE('',#87,#84,#57,.T.);
#106=EDGE_CURVE('',#88,#83,#58,.T.);
#107=ORIENTED_EDGE('',*,*,#89,.F.);
#108=ORIENTED_EDGE('',*,*,#90,.T.);
#109=ORIENTED_EDGE('',*,*,#91,.F.);
#110=ORIENTED_EDGE('',*,*,#90,.F.);
#111=ORIENTED_EDGE('',*,*,#92,.F.);
#112=ORIENTED_EDGE('',*,*,#93,.T.);
#113=ORIENTED_EDGE('',*,*,#94,.F.);
#114=ORIENTED_EDGE('',*,*,#93,.F.);
#115=ORIENTED_EDGE('',*,*,#95,.F.);
#116=ORIENTED_EDGE('',*,*,#96,.F.);
#117=ORIENTED_EDGE('',*,*,#97,.F.);
#118=ORIENTED_EDGE('',*,*,#98,.F.);
#119=ORIENTED_EDGE('',*,*,#91,.T.);
#120=ORIENTED_EDGE('',*,*,#94,.T.);
#121=ORIENTED_EDGE('',*,*,#99,.T.);
#122=ORIENTED_EDGE('',*,*,#100,.T.);
#123=ORIENTED_EDGE('',*,*,#101,.T.);
#124=ORIENTED_EDGE('',*,*,#102,.T.);
#125=ORIENTED_EDGE('',*,*,#89,.T.);
#126=ORIENTED_EDGE('',*,*,#92,.T.);
#127=ORIENTED_EDGE('',*,*,#99,.F.);
#128=ORIENTED_EDGE('',*,*,#103,.T.);
#129=ORIENTED_EDGE('',*,*,#95,.T.);
#130=ORIENTED_EDGE('',*,*,#104,.F.);
#131=ORIENTED_EDGE('',*,*,#100,.F.);
#132=ORIENTED_EDGE('',*,*,#104,.T.);
#133=ORIENTED_EDGE('',*,*,#98,.T.);
#134=ORIENTED_EDGE('',*,*,#105,.F.);
#135=ORIENTED_EDGE('',*,*,#101,.F.);
#136=ORIENTED_EDGE('',*,*,#105,.T.);
#137=ORIENTED_EDGE('',*,*,#97,.T.);
#138=ORIENTED_EDGE('',*,*,#106,.F.);
#139=ORIENTED_EDGE('',*,*,#102,.F.);
#140=ORIENTED_EDGE('',*,*,#106,.T.);
#141=ORIENTED_EDGE('',*,*,#96,.T.);
#142=ORIENTED_EDGE('',*,*,#103,.F.);
#143=CYLINDRICAL_SURFACE('',#155,1.025);
#144=CYLINDRICAL_SURFACE('',#158,0.85);
#145=ADVANCED_FACE('',(#25),#143,.F.);
#146=ADVANCED_FACE('',(#26),#144,.F.);
#147=ADVANCED_FACE('',(#27,#15,#16),#19,.T.);
#148=ADVANCED_FACE('',(#28,#17,#18),#20,.F.);
#149=ADVANCED_FACE('',(#29),#21,.F.);
#150=ADVANCED_FACE('',(#30),#22,.F.);
#151=ADVANCED_FACE('',(#31),#23,.F.);
#152=ADVANCED_FACE('',(#32),#24,.F.);
#153=CLOSED_SHELL('',(#145,#146,#147,#148,#149,#150,#151,#152));
#154=AXIS2_PLACEMENT_3D('',#207,#167,#168);
#155=AXIS2_PLACEMENT_3D('',#208,#169,#170);
#156=AXIS2_PLACEMENT_3D('',#210,#171,#172);
#157=AXIS2_PLACEMENT_3D('',#213,#174,#175);
#158=AXIS2_PLACEMENT_3D('',#214,#176,#177);
#159=AXIS2_PLACEMENT_3D('',#216,#178,#179);
#160=AXIS2_PLACEMENT_3D('',#219,#181,#182);
#161=AXIS2_PLACEMENT_3D('',#220,#183,#184);
#162=AXIS2_PLACEMENT_3D('',#229,#189,#190);
#163=AXIS2_PLACEMENT_3D('',#238,#195,#196);
#164=AXIS2_PLACEMENT_3D('',#241,#199,#200);
#165=AXIS2_PLACEMENT_3D('',#243,#202,#203);
#166=AXIS2_PLACEMENT_3D('',#245,#205,#206);
#167=DIRECTION('axis',(0.,0.,1.));
#168=DIRECTION('refdir',(1.,0.,0.));
#169=DIRECTION('center_axis',(0.,0.,1.));
#170=DIRECTION('ref_axis',(1.,0.,0.));
#171=DIRECTION('center_axis',(0.,0.,1.));
#172=DIRECTION('ref_axis',(1.,0.,0.));
#173=DIRECTION('',(0.,0.,1.));
#174=DIRECTION('center_axis',(-2.350720462801E-31,-2.06342892591716E-32,
-1.));
#175=DIRECTION('ref_axis',(1.,0.,0.));
#176=DIRECTION('center_axis',(0.,0.,1.));
#177=DIRECTION('ref_axis',(1.,0.,0.));
#178=DIRECTION('center_axis',(0.,0.,1.));
#179=DIRECTION('ref_axis',(1.,0.,0.));
#180=DIRECTION('',(0.,0.,1.));
#181=DIRECTION('center_axis',(-2.350720462801E-31,-2.06342892591716E-32,
-1.));
#182=DIRECTION('ref_axis',(1.,0.,0.));
#183=DIRECTION('center_axis',(2.350720462801E-31,2.06342892591716E-32,1.));
#184=DIRECTION('ref_axis',(1.,0.,-2.350720462801E-31));
#185=DIRECTION('',(-1.,0.,0.));
#186=DIRECTION('',(0.,-1.,0.));
#187=DIRECTION('',(1.,0.,0.));
#188=DIRECTION('',(0.,1.,0.));
#189=DIRECTION('center_axis',(0.,0.,1.));
#190=DIRECTION('ref_axis',(1.,0.,0.));
#191=DIRECTION('',(-1.,0.,0.));
#192=DIRECTION('',(0.,1.,0.));
#193=DIRECTION('',(1.,0.,0.));
#194=DIRECTION('',(0.,-1.,0.));
#195=DIRECTION('center_axis',(0.,0.998460353205412,-0.0554700196225229));
#196=DIRECTION('ref_axis',(0.,0.0554700196225229,0.998460353205412));
#197=DIRECTION('',(-0.0277243486500714,0.0554486973001403,0.99807655140257));
#198=DIRECTION('',(0.0277243486500714,0.0554486973001428,0.99807655140257));
#199=DIRECTION('center_axis',(0.999614420652718,0.,-0.0277670672403533));
#200=DIRECTION('ref_axis',(-0.0277670672403533,0.,-0.999614420652718));
#201=DIRECTION('',(0.0277243486500714,-0.0554486973001428,0.99807655140257));
#202=DIRECTION('center_axis',(0.,-0.998460353205412,-0.0554700196225229));
#203=DIRECTION('ref_axis',(0.,0.0554700196225229,-0.998460353205412));
#204=DIRECTION('',(-0.0277243486500714,-0.0554486973001428,0.99807655140257));
#205=DIRECTION('center_axis',(-0.999614420652718,0.,-0.0277670672403533));
#206=DIRECTION('ref_axis',(-0.0277670672403533,0.,0.999614420652718));
#207=CARTESIAN_POINT('',(0.,0.,0.));
#208=CARTESIAN_POINT('Origin',(-1.55,6.5,0.));
#209=CARTESIAN_POINT('',(-2.575,6.5,0.));
#210=CARTESIAN_POINT('Origin',(-1.55,6.5,0.));
#211=CARTESIAN_POINT('',(-2.575,6.5,1.8));
#212=CARTESIAN_POINT('',(-2.575,6.5,0.));
#213=CARTESIAN_POINT('Origin',(-1.55,6.5,1.8));
#214=CARTESIAN_POINT('Origin',(-1.55,1.5,0.));
#215=CARTESIAN_POINT('',(-2.4,1.5,0.));
#216=CARTESIAN_POINT('Origin',(-1.55,1.5,0.));
#217=CARTESIAN_POINT('',(-2.4,1.5,1.8));
#218=CARTESIAN_POINT('',(-2.4,1.5,0.));
#219=CARTESIAN_POINT('Origin',(-1.55,1.5,1.8));
#220=CARTESIAN_POINT('Origin',(-1.55,4.05,1.8));
#221=CARTESIAN_POINT('',(-0.05,0.1,1.8));
#222=CARTESIAN_POINT('',(-3.05,0.1,1.8));
#223=CARTESIAN_POINT('',(-0.05,0.1,1.8));
#224=CARTESIAN_POINT('',(-0.05,8.,1.8));
#225=CARTESIAN_POINT('',(-0.05,8.,1.8));
#226=CARTESIAN_POINT('',(-3.05,8.,1.8));
#227=CARTESIAN_POINT('',(-3.05,8.,1.8));
#228=CARTESIAN_POINT('',(-3.05,0.1,1.8));
#229=CARTESIAN_POINT('Origin',(-1.55,4.05,0.));
#230=CARTESIAN_POINT('',(0.,0.,0.));
#231=CARTESIAN_POINT('',(-3.1,0.,0.));
#232=CARTESIAN_POINT('',(0.,0.,0.));
#233=CARTESIAN_POINT('',(-3.1,8.1,0.));
#234=CARTESIAN_POINT('',(-3.1,0.,0.));
#235=CARTESIAN_POINT('',(0.,8.1,0.));
#236=CARTESIAN_POINT('',(-3.1,8.1,0.));
#237=CARTESIAN_POINT('',(0.,8.1,0.));
#238=CARTESIAN_POINT('Origin',(0.,0.,0.));
#239=CARTESIAN_POINT('',(0.,0.,0.));
#240=CARTESIAN_POINT('',(-3.1,0.,0.));
#241=CARTESIAN_POINT('Origin',(-3.1,0.,0.));
#242=CARTESIAN_POINT('',(-3.1,8.1,0.));
#243=CARTESIAN_POINT('Origin',(-3.1,8.1,0.));
#244=CARTESIAN_POINT('',(0.,8.1,0.));
#245=CARTESIAN_POINT('Origin',(0.,8.1,0.));
#246=UNCERTAINTY_MEASURE_WITH_UNIT(LENGTH_MEASURE(0.01),#250,
'DISTANCE_ACCURACY_VALUE',
'Maximum model space distance between geometric entities at asserted c
onnectivities');
#247=UNCERTAINTY_MEASURE_WITH_UNIT(LENGTH_MEASURE(0.01),#250,
'DISTANCE_ACCURACY_VALUE',
'Maximum model space distance between geometric entities at asserted c
onnectivities');
#248=(
GEOMETRIC_REPRESENTATION_CONTEXT(3)
GLOBAL_UNCERTAINTY_ASSIGNED_CONTEXT((#246))
GLOBAL_UNIT_ASSIGNED_CONTEXT((#250,#251,#252))
REPRESENTATION_CONTEXT('','3D')
);
#249=(
GEOMETRIC_REPRESENTATION_CONTEXT(3)
GLOBAL_UNCERTAINTY_ASSIGNED_CONTEXT((#247))
GLOBAL_UNIT_ASSIGNED_CONTEXT((#250,#251,#252))
REPRESENTATION_CONTEXT('','3D')
);
#250=(
LENGTH_UNIT()
NAMED_UNIT(*)
SI_UNIT(.MILLI.,.METRE.)
);
#251=(
NAMED_UNIT(*)
PLANE_ANGLE_UNIT()
SI_UNIT($,.RADIAN.)
);
#252=(
NAMED_UNIT(*)
SI_UNIT($,.STERADIAN.)
SOLID_ANGLE_UNIT()
);
#253=SHAPE_DEFINITION_REPRESENTATION(#254,#255);
#254=PRODUCT_DEFINITION_SHAPE('',$,#257);
#255=SHAPE_REPRESENTATION('',(#154),#248);
#256=PRODUCT_DEFINITION_CONTEXT('part definition',#261,'design');
#257=PRODUCT_DEFINITION('Raspberry Pi Zero 2 W','CapHat v5',#258,#256);
#258=PRODUCT_DEFINITION_FORMATION('',$,#263);
#259=PRODUCT_RELATED_PRODUCT_CATEGORY('CapHat v5','CapHat v5',(#263));
#260=APPLICATION_PROTOCOL_DEFINITION('international standard',
'automotive_design',2009,#261);
#261=APPLICATION_CONTEXT(
'Core Data for Automotive Mechanical Design Process');
#262=PRODUCT_CONTEXT('part definition',#261,'mechanical');
#263=PRODUCT('Raspberry Pi Zero 2 W','CapHat v5','STEP AP214',(#262));
#264=PRESENTATION_STYLE_ASSIGNMENT((#265));
#265=SURFACE_STYLE_USAGE(.BOTH.,#266);
#266=SURFACE_SIDE_STYLE('',(#267));
#267=SURFACE_STYLE_FILL_AREA(#268);
#268=FILL_AREA_STYLE('Steel - Satin',(#269));
#269=FILL_AREA_STYLE_COLOUR('Steel - Satin',#270);
#270=COLOUR_RGB('Steel - Satin',0.627450980392157,0.627450980392157,0.627450980392157);
ENDSEC;
END-ISO-10303-21;
