ISO-10303-21;
HEADER;
/* Generated by software containing ST-Developer
 * from STEP Tools, Inc. (www.steptools.com) 
 */

FILE_DESCRIPTION(
/* description */ ('STEP AP214'),
/* implementation_level */ '2;1');

FILE_NAME(
/* name */ 'CameraV1.step',
/* time_stamp */ '2025-06-10T23:59:47-07:00',
/* author */ (''),
/* organization */ (''),
/* preprocessor_version */ 'ST-DEVELOPER v20.1',
/* originating_system */ 'Autodesk Translation Framework v14.10.0.0',
/* authorisation */ '');

FILE_SCHEMA (('AUTOMOTIVE_DESIGN { 1 0 10303 214 3 1 1 }'));
ENDSEC;

DATA;
#10=MECHANICAL_DESIGN_GEOMETRIC_PRESENTATION_REPRESENTATION('',(#13),#447);
#11=SHAPE_REPRESENTATION_RELATIONSHIP('SRR','None',#453,#12);
#12=ADVANCED_BREP_SHAPE_REPRESENTATION('',(#14),#446);
#13=STYLED_ITEM('',(#462),#14);
#14=MANIFOLD_SOLID_BREP('Camera',#279);
#15=FACE_BOUND('',#59,.T.);
#16=PLANE('',#284);
#17=PLANE('',#285);
#18=PLANE('',#286);
#19=PLANE('',#287);
#20=PLANE('',#288);
#21=PLANE('',#289);
#22=PLANE('',#290);
#23=PLANE('',#291);
#24=PLANE('',#292);
#25=PLANE('',#293);
#26=PLANE('',#294);
#27=PLANE('',#295);
#28=PLANE('',#296);
#29=PLANE('',#297);
#30=FACE_OUTER_BOUND('',#45,.T.);
#31=FACE_OUTER_BOUND('',#46,.T.);
#32=FACE_OUTER_BOUND('',#47,.T.);
#33=FACE_OUTER_BOUND('',#48,.T.);
#34=FACE_OUTER_BOUND('',#49,.T.);
#35=FACE_OUTER_BOUND('',#50,.T.);
#36=FACE_OUTER_BOUND('',#51,.T.);
#37=FACE_OUTER_BOUND('',#52,.T.);
#38=FACE_OUTER_BOUND('',#53,.T.);
#39=FACE_OUTER_BOUND('',#54,.T.);
#40=FACE_OUTER_BOUND('',#55,.T.);
#41=FACE_OUTER_BOUND('',#56,.T.);
#42=FACE_OUTER_BOUND('',#57,.T.);
#43=FACE_OUTER_BOUND('',#58,.T.);
#44=FACE_OUTER_BOUND('',#60,.T.);
#45=EDGE_LOOP('',(#191,#192,#193,#194));
#46=EDGE_LOOP('',(#195));
#47=EDGE_LOOP('',(#196,#197,#198,#199,#200,#201,#202,#203));
#48=EDGE_LOOP('',(#204,#205,#206,#207));
#49=EDGE_LOOP('',(#208,#209,#210,#211));
#50=EDGE_LOOP('',(#212,#213,#214,#215));
#51=EDGE_LOOP('',(#216,#217,#218,#219));
#52=EDGE_LOOP('',(#220,#221,#222,#223));
#53=EDGE_LOOP('',(#224,#225,#226,#227));
#54=EDGE_LOOP('',(#228,#229,#230,#231,#232,#233));
#55=EDGE_LOOP('',(#234,#235,#236,#237));
#56=EDGE_LOOP('',(#238,#239,#240,#241));
#57=EDGE_LOOP('',(#242,#243,#244,#245,#246,#247));
#58=EDGE_LOOP('',(#248,#249,#250,#251));
#59=EDGE_LOOP('',(#252));
#60=EDGE_LOOP('',(#253,#254,#255,#256,#257,#258,#259,#260,#261,#262));
#61=LINE('',#373,#95);
#62=LINE('',#379,#96);
#63=LINE('',#381,#97);
#64=LINE('',#383,#98);
#65=LINE('',#385,#99);
#66=LINE('',#387,#100);
#67=LINE('',#389,#101);
#68=LINE('',#391,#102);
#69=LINE('',#392,#103);
#70=LINE('',#396,#104);
#71=LINE('',#398,#105);
#72=LINE('',#400,#106);
#73=LINE('',#401,#107);
#74=LINE('',#403,#108);
#75=LINE('',#404,#109);
#76=LINE('',#406,#110);
#77=LINE('',#407,#111);
#78=LINE('',#411,#112);
#79=LINE('',#413,#113);
#80=LINE('',#414,#114);
#81=LINE('',#417,#115);
#82=LINE('',#418,#116);
#83=LINE('',#421,#117);
#84=LINE('',#423,#118);
#85=LINE('',#425,#119);
#86=LINE('',#426,#120);
#87=LINE('',#429,#121);
#88=LINE('',#431,#122);
#89=LINE('',#432,#123);
#90=LINE('',#435,#124);
#91=LINE('',#437,#125);
#92=LINE('',#438,#126);
#93=LINE('',#440,#127);
#94=LINE('',#441,#128);
#95=VECTOR('',#304,2.25);
#96=VECTOR('',#311,10.);
#97=VECTOR('',#312,10.);
#98=VECTOR('',#313,10.);
#99=VECTOR('',#314,10.);
#100=VECTOR('',#315,10.);
#101=VECTOR('',#316,10.);
#102=VECTOR('',#317,10.);
#103=VECTOR('',#318,10.);
#104=VECTOR('',#321,10.);
#105=VECTOR('',#322,10.);
#106=VECTOR('',#323,10.);
#107=VECTOR('',#324,10.);
#108=VECTOR('',#327,10.);
#109=VECTOR('',#328,10.);
#110=VECTOR('',#331,10.);
#111=VECTOR('',#332,10.);
#112=VECTOR('',#337,10.);
#113=VECTOR('',#338,10.);
#114=VECTOR('',#339,10.);
#115=VECTOR('',#342,10.);
#116=VECTOR('',#343,10.);
#117=VECTOR('',#346,10.);
#118=VECTOR('',#347,10.);
#119=VECTOR('',#348,10.);
#120=VECTOR('',#349,10.);
#121=VECTOR('',#352,10.);
#122=VECTOR('',#353,10.);
#123=VECTOR('',#354,10.);
#124=VECTOR('',#357,10.);
#125=VECTOR('',#358,10.);
#126=VECTOR('',#359,10.);
#127=VECTOR('',#362,10.);
#128=VECTOR('',#363,10.);
#129=CIRCLE('',#282,2.25);
#130=CIRCLE('',#283,2.25);
#131=VERTEX_POINT('',#370);
#132=VERTEX_POINT('',#372);
#133=VERTEX_POINT('',#377);
#134=VERTEX_POINT('',#378);
#135=VERTEX_POINT('',#380);
#136=VERTEX_POINT('',#382);
#137=VERTEX_POINT('',#384);
#138=VERTEX_POINT('',#386);
#139=VERTEX_POINT('',#388);
#140=VERTEX_POINT('',#390);
#141=VERTEX_POINT('',#394);
#142=VERTEX_POINT('',#395);
#143=VERTEX_POINT('',#397);
#144=VERTEX_POINT('',#399);
#145=VERTEX_POINT('',#410);
#146=VERTEX_POINT('',#412);
#147=VERTEX_POINT('',#416);
#148=VERTEX_POINT('',#420);
#149=VERTEX_POINT('',#422);
#150=VERTEX_POINT('',#424);
#151=VERTEX_POINT('',#428);
#152=VERTEX_POINT('',#430);
#153=VERTEX_POINT('',#434);
#154=VERTEX_POINT('',#436);
#155=EDGE_CURVE('',#131,#131,#129,.T.);
#156=EDGE_CURVE('',#131,#132,#61,.T.);
#157=EDGE_CURVE('',#132,#132,#130,.T.);
#158=EDGE_CURVE('',#133,#134,#62,.T.);
#159=EDGE_CURVE('',#135,#134,#63,.T.);
#160=EDGE_CURVE('',#136,#135,#64,.T.);
#161=EDGE_CURVE('',#136,#137,#65,.T.);
#162=EDGE_CURVE('',#137,#138,#66,.T.);
#163=EDGE_CURVE('',#139,#138,#67,.T.);
#164=EDGE_CURVE('',#140,#139,#68,.T.);
#165=EDGE_CURVE('',#140,#133,#69,.T.);
#166=EDGE_CURVE('',#141,#142,#70,.T.);
#167=EDGE_CURVE('',#142,#143,#71,.T.);
#168=EDGE_CURVE('',#144,#143,#72,.T.);
#169=EDGE_CURVE('',#141,#144,#73,.T.);
#170=EDGE_CURVE('',#137,#141,#74,.T.);
#171=EDGE_CURVE('',#138,#144,#75,.T.);
#172=EDGE_CURVE('',#142,#140,#76,.T.);
#173=EDGE_CURVE('',#143,#139,#77,.T.);
#174=EDGE_CURVE('',#145,#136,#78,.T.);
#175=EDGE_CURVE('',#146,#135,#79,.T.);
#176=EDGE_CURVE('',#145,#146,#80,.T.);
#177=EDGE_CURVE('',#134,#147,#81,.T.);
#178=EDGE_CURVE('',#146,#147,#82,.T.);
#179=EDGE_CURVE('',#147,#148,#83,.T.);
#180=EDGE_CURVE('',#149,#148,#84,.T.);
#181=EDGE_CURVE('',#150,#149,#85,.T.);
#182=EDGE_CURVE('',#150,#145,#86,.T.);
#183=EDGE_CURVE('',#151,#150,#87,.T.);
#184=EDGE_CURVE('',#152,#149,#88,.T.);
#185=EDGE_CURVE('',#151,#152,#89,.T.);
#186=EDGE_CURVE('',#153,#151,#90,.T.);
#187=EDGE_CURVE('',#154,#152,#91,.T.);
#188=EDGE_CURVE('',#153,#154,#92,.T.);
#189=EDGE_CURVE('',#133,#153,#93,.T.);
#190=EDGE_CURVE('',#148,#154,#94,.T.);
#191=ORIENTED_EDGE('',*,*,#155,.F.);
#192=ORIENTED_EDGE('',*,*,#156,.T.);
#193=ORIENTED_EDGE('',*,*,#157,.F.);
#194=ORIENTED_EDGE('',*,*,#156,.F.);
#195=ORIENTED_EDGE('',*,*,#155,.T.);
#196=ORIENTED_EDGE('',*,*,#158,.T.);
#197=ORIENTED_EDGE('',*,*,#159,.F.);
#198=ORIENTED_EDGE('',*,*,#160,.F.);
#199=ORIENTED_EDGE('',*,*,#161,.T.);
#200=ORIENTED_EDGE('',*,*,#162,.T.);
#201=ORIENTED_EDGE('',*,*,#163,.F.);
#202=ORIENTED_EDGE('',*,*,#164,.F.);
#203=ORIENTED_EDGE('',*,*,#165,.T.);
#204=ORIENTED_EDGE('',*,*,#166,.T.);
#205=ORIENTED_EDGE('',*,*,#167,.T.);
#206=ORIENTED_EDGE('',*,*,#168,.F.);
#207=ORIENTED_EDGE('',*,*,#169,.F.);
#208=ORIENTED_EDGE('',*,*,#170,.T.);
#209=ORIENTED_EDGE('',*,*,#169,.T.);
#210=ORIENTED_EDGE('',*,*,#171,.F.);
#211=ORIENTED_EDGE('',*,*,#162,.F.);
#212=ORIENTED_EDGE('',*,*,#172,.T.);
#213=ORIENTED_EDGE('',*,*,#164,.T.);
#214=ORIENTED_EDGE('',*,*,#173,.F.);
#215=ORIENTED_EDGE('',*,*,#167,.F.);
#216=ORIENTED_EDGE('',*,*,#173,.T.);
#217=ORIENTED_EDGE('',*,*,#163,.T.);
#218=ORIENTED_EDGE('',*,*,#171,.T.);
#219=ORIENTED_EDGE('',*,*,#168,.T.);
#220=ORIENTED_EDGE('',*,*,#174,.T.);
#221=ORIENTED_EDGE('',*,*,#160,.T.);
#222=ORIENTED_EDGE('',*,*,#175,.F.);
#223=ORIENTED_EDGE('',*,*,#176,.F.);
#224=ORIENTED_EDGE('',*,*,#175,.T.);
#225=ORIENTED_EDGE('',*,*,#159,.T.);
#226=ORIENTED_EDGE('',*,*,#177,.T.);
#227=ORIENTED_EDGE('',*,*,#178,.F.);
#228=ORIENTED_EDGE('',*,*,#176,.T.);
#229=ORIENTED_EDGE('',*,*,#178,.T.);
#230=ORIENTED_EDGE('',*,*,#179,.T.);
#231=ORIENTED_EDGE('',*,*,#180,.F.);
#232=ORIENTED_EDGE('',*,*,#181,.F.);
#233=ORIENTED_EDGE('',*,*,#182,.T.);
#234=ORIENTED_EDGE('',*,*,#183,.T.);
#235=ORIENTED_EDGE('',*,*,#181,.T.);
#236=ORIENTED_EDGE('',*,*,#184,.F.);
#237=ORIENTED_EDGE('',*,*,#185,.F.);
#238=ORIENTED_EDGE('',*,*,#186,.T.);
#239=ORIENTED_EDGE('',*,*,#185,.T.);
#240=ORIENTED_EDGE('',*,*,#187,.F.);
#241=ORIENTED_EDGE('',*,*,#188,.F.);
#242=ORIENTED_EDGE('',*,*,#189,.T.);
#243=ORIENTED_EDGE('',*,*,#188,.T.);
#244=ORIENTED_EDGE('',*,*,#190,.F.);
#245=ORIENTED_EDGE('',*,*,#179,.F.);
#246=ORIENTED_EDGE('',*,*,#177,.F.);
#247=ORIENTED_EDGE('',*,*,#158,.F.);
#248=ORIENTED_EDGE('',*,*,#190,.T.);
#249=ORIENTED_EDGE('',*,*,#187,.T.);
#250=ORIENTED_EDGE('',*,*,#184,.T.);
#251=ORIENTED_EDGE('',*,*,#180,.T.);
#252=ORIENTED_EDGE('',*,*,#157,.T.);
#253=ORIENTED_EDGE('',*,*,#189,.F.);
#254=ORIENTED_EDGE('',*,*,#165,.F.);
#255=ORIENTED_EDGE('',*,*,#172,.F.);
#256=ORIENTED_EDGE('',*,*,#166,.F.);
#257=ORIENTED_EDGE('',*,*,#170,.F.);
#258=ORIENTED_EDGE('',*,*,#161,.F.);
#259=ORIENTED_EDGE('',*,*,#174,.F.);
#260=ORIENTED_EDGE('',*,*,#182,.F.);
#261=ORIENTED_EDGE('',*,*,#183,.F.);
#262=ORIENTED_EDGE('',*,*,#186,.F.);
#263=CYLINDRICAL_SURFACE('',#281,2.25);
#264=ADVANCED_FACE('',(#30),#263,.T.);
#265=ADVANCED_FACE('',(#31),#16,.T.);
#266=ADVANCED_FACE('',(#32),#17,.T.);
#267=ADVANCED_FACE('',(#33),#18,.T.);
#268=ADVANCED_FACE('',(#34),#19,.T.);
#269=ADVANCED_FACE('',(#35),#20,.T.);
#270=ADVANCED_FACE('',(#36),#21,.T.);
#271=ADVANCED_FACE('',(#37),#22,.T.);
#272=ADVANCED_FACE('',(#38),#23,.T.);
#273=ADVANCED_FACE('',(#39),#24,.T.);
#274=ADVANCED_FACE('',(#40),#25,.T.);
#275=ADVANCED_FACE('',(#41),#26,.T.);
#276=ADVANCED_FACE('',(#42),#27,.T.);
#277=ADVANCED_FACE('',(#43,#15),#28,.T.);
#278=ADVANCED_FACE('',(#44),#29,.F.);
#279=CLOSED_SHELL('',(#264,#265,#266,#267,#268,#269,#270,#271,#272,#273,
#274,#275,#276,#277,#278));
#280=AXIS2_PLACEMENT_3D('',#368,#298,#299);
#281=AXIS2_PLACEMENT_3D('',#369,#300,#301);
#282=AXIS2_PLACEMENT_3D('',#371,#302,#303);
#283=AXIS2_PLACEMENT_3D('',#374,#305,#306);
#284=AXIS2_PLACEMENT_3D('',#375,#307,#308);
#285=AXIS2_PLACEMENT_3D('',#376,#309,#310);
#286=AXIS2_PLACEMENT_3D('',#393,#319,#320);
#287=AXIS2_PLACEMENT_3D('',#402,#325,#326);
#288=AXIS2_PLACEMENT_3D('',#405,#329,#330);
#289=AXIS2_PLACEMENT_3D('',#408,#333,#334);
#290=AXIS2_PLACEMENT_3D('',#409,#335,#336);
#291=AXIS2_PLACEMENT_3D('',#415,#340,#341);
#292=AXIS2_PLACEMENT_3D('',#419,#344,#345);
#293=AXIS2_PLACEMENT_3D('',#427,#350,#351);
#294=AXIS2_PLACEMENT_3D('',#433,#355,#356);
#295=AXIS2_PLACEMENT_3D('',#439,#360,#361);
#296=AXIS2_PLACEMENT_3D('',#442,#364,#365);
#297=AXIS2_PLACEMENT_3D('',#443,#366,#367);
#298=DIRECTION('axis',(0.,0.,1.));
#299=DIRECTION('refdir',(1.,0.,0.));
#300=DIRECTION('center_axis',(0.,0.,1.));
#301=DIRECTION('ref_axis',(2.46716227694479E-16,-1.,0.));
#302=DIRECTION('center_axis',(0.,0.,1.));
#303=DIRECTION('ref_axis',(2.46716227694479E-16,-1.,0.));
#304=DIRECTION('',(0.,0.,-1.));
#305=DIRECTION('center_axis',(0.,0.,-1.));
#306=DIRECTION('ref_axis',(2.46716227694479E-16,-1.,0.));
#307=DIRECTION('center_axis',(0.,0.,1.));
#308=DIRECTION('ref_axis',(1.,0.,0.));
#309=DIRECTION('center_axis',(-1.,-1.29850646154989E-16,0.));
#310=DIRECTION('ref_axis',(1.29850646154989E-16,-1.,0.));
#311=DIRECTION('',(0.,0.,1.));
#312=DIRECTION('',(-1.29850646154989E-16,1.,0.));
#313=DIRECTION('',(0.,0.,1.));
#314=DIRECTION('',(1.29850646154989E-16,-1.,0.));
#315=DIRECTION('',(0.,0.,1.));
#316=DIRECTION('',(1.29850646154989E-16,-1.,0.));
#317=DIRECTION('',(0.,0.,1.));
#318=DIRECTION('',(1.29850646154989E-16,-1.,0.));
#319=DIRECTION('center_axis',(1.,2.59701292309978E-16,0.));
#320=DIRECTION('ref_axis',(-2.59701292309978E-16,1.,0.));
#321=DIRECTION('',(-2.59701292309978E-16,1.,0.));
#322=DIRECTION('',(0.,0.,1.));
#323=DIRECTION('',(-2.59701292309978E-16,1.,0.));
#324=DIRECTION('',(0.,0.,1.));
#325=DIRECTION('center_axis',(2.67523620391604E-16,-1.,0.));
#326=DIRECTION('ref_axis',(1.,2.67523620391604E-16,0.));
#327=DIRECTION('',(1.,2.67523620391604E-16,0.));
#328=DIRECTION('',(1.,2.67523620391604E-16,0.));
#329=DIRECTION('center_axis',(-2.67523620391604E-16,1.,0.));
#330=DIRECTION('ref_axis',(-1.,-2.67523620391604E-16,0.));
#331=DIRECTION('',(-1.,-2.67523620391604E-16,0.));
#332=DIRECTION('',(-1.,-2.67523620391604E-16,0.));
#333=DIRECTION('center_axis',(0.,0.,1.));
#334=DIRECTION('ref_axis',(1.,0.,0.));
#335=DIRECTION('center_axis',(3.2368018210646E-16,-1.,0.));
#336=DIRECTION('ref_axis',(1.,3.2368018210646E-16,0.));
#337=DIRECTION('',(1.,3.2368018210646E-16,0.));
#338=DIRECTION('',(1.,3.2368018210646E-16,0.));
#339=DIRECTION('',(0.,0.,1.));
#340=DIRECTION('center_axis',(0.,0.,1.));
#341=DIRECTION('ref_axis',(1.,0.,0.));
#342=DIRECTION('',(-1.,-3.2368018210646E-16,0.));
#343=DIRECTION('',(-2.08688538463375E-16,1.,0.));
#344=DIRECTION('center_axis',(1.,2.08688538463375E-16,0.));
#345=DIRECTION('ref_axis',(-2.08688538463375E-16,1.,0.));
#346=DIRECTION('',(0.,0.,1.));
#347=DIRECTION('',(-2.08688538463375E-16,1.,0.));
#348=DIRECTION('',(0.,0.,1.));
#349=DIRECTION('',(-2.08688538463375E-16,1.,0.));
#350=DIRECTION('center_axis',(1.669508307707E-16,-1.,0.));
#351=DIRECTION('ref_axis',(1.,1.669508307707E-16,0.));
#352=DIRECTION('',(1.,1.669508307707E-16,0.));
#353=DIRECTION('',(1.,1.669508307707E-16,0.));
#354=DIRECTION('',(0.,0.,1.));
#355=DIRECTION('center_axis',(-1.,-1.669508307707E-16,0.));
#356=DIRECTION('ref_axis',(1.669508307707E-16,-1.,0.));
#357=DIRECTION('',(1.669508307707E-16,-1.,0.));
#358=DIRECTION('',(1.669508307707E-16,-1.,0.));
#359=DIRECTION('',(0.,0.,1.));
#360=DIRECTION('center_axis',(-1.669508307707E-16,1.,0.));
#361=DIRECTION('ref_axis',(-1.,-1.669508307707E-16,0.));
#362=DIRECTION('',(-1.,-1.669508307707E-16,0.));
#363=DIRECTION('',(-1.,-1.669508307707E-16,0.));
#364=DIRECTION('center_axis',(0.,0.,1.));
#365=DIRECTION('ref_axis',(1.,0.,0.));
#366=DIRECTION('center_axis',(0.,0.,1.));
#367=DIRECTION('ref_axis',(1.,0.,0.));
#368=CARTESIAN_POINT('',(0.,0.,0.));
#369=CARTESIAN_POINT('Origin',(-1.79661504416853,-1.69812244716529,0.));
#370=CARTESIAN_POINT('',(-1.79661504416853,0.551877552834708,4.52));
#371=CARTESIAN_POINT('Origin',(-1.79661504416853,-1.69812244716529,4.52));
#372=CARTESIAN_POINT('',(-1.79661504416853,0.551877552834708,3.47));
#373=CARTESIAN_POINT('',(-1.79661504416853,0.551877552834708,0.));
#374=CARTESIAN_POINT('Origin',(-1.79661504416853,-1.69812244716529,3.47));
#375=CARTESIAN_POINT('Origin',(-1.79661504416853,-1.69812244716529,4.52));
#376=CARTESIAN_POINT('Origin',(8.38838495583147,2.57687755283471,0.));
#377=CARTESIAN_POINT('',(8.38838495583147,1.62687755283471,0.));
#378=CARTESIAN_POINT('',(8.38838495583147,1.62687755283471,0.15));
#379=CARTESIAN_POINT('',(8.38838495583147,1.62687755283471,0.));
#380=CARTESIAN_POINT('',(8.38838495583147,-4.97312244716529,0.15));
#381=CARTESIAN_POINT('',(8.38838495583147,2.57687755283471,0.15));
#382=CARTESIAN_POINT('',(8.38838495583147,-4.97312244716529,0.));
#383=CARTESIAN_POINT('',(8.38838495583147,-4.97312244716529,0.));
#384=CARTESIAN_POINT('',(8.38838495583147,-5.97312244716529,0.));
#385=CARTESIAN_POINT('',(8.38838495583147,2.57687755283471,0.));
#386=CARTESIAN_POINT('',(8.38838495583147,-5.97312244716529,0.52));
#387=CARTESIAN_POINT('',(8.38838495583147,-5.97312244716529,0.));
#388=CARTESIAN_POINT('',(8.38838495583147,2.57687755283471,0.52));
#389=CARTESIAN_POINT('',(8.38838495583147,2.57687755283471,0.52));
#390=CARTESIAN_POINT('',(8.38838495583147,2.57687755283471,0.));
#391=CARTESIAN_POINT('',(8.38838495583147,2.57687755283471,0.));
#392=CARTESIAN_POINT('',(8.38838495583147,2.57687755283471,0.));
#393=CARTESIAN_POINT('Origin',(12.5383849558315,-5.97312244716529,0.));
#394=CARTESIAN_POINT('',(12.5383849558315,-5.97312244716529,0.));
#395=CARTESIAN_POINT('',(12.5383849558315,2.57687755283471,0.));
#396=CARTESIAN_POINT('',(12.5383849558315,-5.97312244716529,0.));
#397=CARTESIAN_POINT('',(12.5383849558315,2.57687755283471,0.52));
#398=CARTESIAN_POINT('',(12.5383849558315,2.57687755283471,0.));
#399=CARTESIAN_POINT('',(12.5383849558315,-5.97312244716529,0.52));
#400=CARTESIAN_POINT('',(12.5383849558315,-5.97312244716529,0.52));
#401=CARTESIAN_POINT('',(12.5383849558315,-5.97312244716529,0.));
#402=CARTESIAN_POINT('Origin',(8.38838495583147,-5.97312244716529,0.));
#403=CARTESIAN_POINT('',(8.38838495583147,-5.97312244716529,0.));
#404=CARTESIAN_POINT('',(8.38838495583147,-5.97312244716529,0.52));
#405=CARTESIAN_POINT('Origin',(12.5383849558315,2.57687755283471,0.));
#406=CARTESIAN_POINT('',(12.5383849558315,2.57687755283471,0.));
#407=CARTESIAN_POINT('',(12.5383849558315,2.57687755283471,0.52));
#408=CARTESIAN_POINT('Origin',(10.4633849558315,-1.69812244716529,0.52));
#409=CARTESIAN_POINT('Origin',(1.52838495583147,-4.97312244716529,0.));
#410=CARTESIAN_POINT('',(1.52838495583147,-4.97312244716529,0.));
#411=CARTESIAN_POINT('',(1.52838495583147,-4.97312244716529,0.));
#412=CARTESIAN_POINT('',(1.52838495583147,-4.97312244716529,0.15));
#413=CARTESIAN_POINT('',(1.52838495583147,-4.97312244716529,0.15));
#414=CARTESIAN_POINT('',(1.52838495583147,-4.97312244716529,0.));
#415=CARTESIAN_POINT('Origin',(4.95838495583147,-1.67312244716529,0.15));
#416=CARTESIAN_POINT('',(1.52838495583147,1.62687755283471,0.15));
#417=CARTESIAN_POINT('',(8.38838495583147,1.62687755283471,0.15));
#418=CARTESIAN_POINT('',(1.52838495583147,-3.34812244716529,0.15));
#419=CARTESIAN_POINT('Origin',(1.52838495583147,-5.02312244716529,0.));
#420=CARTESIAN_POINT('',(1.52838495583147,1.62687755283471,3.47));
#421=CARTESIAN_POINT('',(1.52838495583147,1.62687755283471,0.));
#422=CARTESIAN_POINT('',(1.52838495583147,-5.02312244716529,3.47));
#423=CARTESIAN_POINT('',(1.52838495583147,-5.02312244716529,3.47));
#424=CARTESIAN_POINT('',(1.52838495583147,-5.02312244716529,0.));
#425=CARTESIAN_POINT('',(1.52838495583147,-5.02312244716529,0.));
#426=CARTESIAN_POINT('',(1.52838495583147,-5.02312244716529,0.));
#427=CARTESIAN_POINT('Origin',(-5.12161504416853,-5.02312244716529,0.));
#428=CARTESIAN_POINT('',(-5.12161504416853,-5.02312244716529,0.));
#429=CARTESIAN_POINT('',(-5.12161504416853,-5.02312244716529,0.));
#430=CARTESIAN_POINT('',(-5.12161504416853,-5.02312244716529,3.47));
#431=CARTESIAN_POINT('',(-5.12161504416853,-5.02312244716529,3.47));
#432=CARTESIAN_POINT('',(-5.12161504416853,-5.02312244716529,0.));
#433=CARTESIAN_POINT('Origin',(-5.12161504416853,1.62687755283471,0.));
#434=CARTESIAN_POINT('',(-5.12161504416853,1.62687755283471,0.));
#435=CARTESIAN_POINT('',(-5.12161504416853,1.62687755283471,0.));
#436=CARTESIAN_POINT('',(-5.12161504416853,1.62687755283471,3.47));
#437=CARTESIAN_POINT('',(-5.12161504416853,1.62687755283471,3.47));
#438=CARTESIAN_POINT('',(-5.12161504416853,1.62687755283471,0.));
#439=CARTESIAN_POINT('Origin',(1.52838495583147,1.62687755283471,0.));
#440=CARTESIAN_POINT('',(1.52838495583147,1.62687755283471,0.));
#441=CARTESIAN_POINT('',(1.52838495583147,1.62687755283471,3.47));
#442=CARTESIAN_POINT('Origin',(-1.79661504416853,-1.69812244716529,3.47));
#443=CARTESIAN_POINT('Origin',(-1.79661504416853,-1.69812244716529,0.));
#444=UNCERTAINTY_MEASURE_WITH_UNIT(LENGTH_MEASURE(0.01),#448,
'DISTANCE_ACCURACY_VALUE',
'Maximum model space distance between geometric entities at asserted c
onnectivities');
#445=UNCERTAINTY_MEASURE_WITH_UNIT(LENGTH_MEASURE(0.01),#448,
'DISTANCE_ACCURACY_VALUE',
'Maximum model space distance between geometric entities at asserted c
onnectivities');
#446=(
GEOMETRIC_REPRESENTATION_CONTEXT(3)
GLOBAL_UNCERTAINTY_ASSIGNED_CONTEXT((#444))
GLOBAL_UNIT_ASSIGNED_CONTEXT((#448,#449,#450))
REPRESENTATION_CONTEXT('','3D')
);
#447=(
GEOMETRIC_REPRESENTATION_CONTEXT(3)
GLOBAL_UNCERTAINTY_ASSIGNED_CONTEXT((#445))
GLOBAL_UNIT_ASSIGNED_CONTEXT((#448,#449,#450))
REPRESENTATION_CONTEXT('','3D')
);
#448=(
LENGTH_UNIT()
NAMED_UNIT(*)
SI_UNIT(.MILLI.,.METRE.)
);
#449=(
NAMED_UNIT(*)
PLANE_ANGLE_UNIT()
SI_UNIT($,.RADIAN.)
);
#450=(
NAMED_UNIT(*)
SI_UNIT($,.STERADIAN.)
SOLID_ANGLE_UNIT()
);
#451=SHAPE_DEFINITION_REPRESENTATION(#452,#453);
#452=PRODUCT_DEFINITION_SHAPE('',$,#455);
#453=SHAPE_REPRESENTATION('',(#280),#446);
#454=PRODUCT_DEFINITION_CONTEXT('part definition',#459,'design');
#455=PRODUCT_DEFINITION('Raspberry Pi Zero 2 W','CapHat v5',#456,#454);
#456=PRODUCT_DEFINITION_FORMATION('',$,#461);
#457=PRODUCT_RELATED_PRODUCT_CATEGORY('CapHat v5','CapHat v5',(#461));
#458=APPLICATION_PROTOCOL_DEFINITION('international standard',
'automotive_design',2009,#459);
#459=APPLICATION_CONTEXT(
'Core Data for Automotive Mechanical Design Process');
#460=PRODUCT_CONTEXT('part definition',#459,'mechanical');
#461=PRODUCT('Raspberry Pi Zero 2 W','CapHat v5','STEP AP214',(#460));
#462=PRESENTATION_STYLE_ASSIGNMENT((#463));
#463=SURFACE_STYLE_USAGE(.BOTH.,#464);
#464=SURFACE_SIDE_STYLE('',(#465));
#465=SURFACE_STYLE_FILL_AREA(#466);
#466=FILL_AREA_STYLE('Steel - Satin',(#467));
#467=FILL_AREA_STYLE_COLOUR('Steel - Satin',#468);
#468=COLOUR_RGB('Steel - Satin',0.627450980392157,0.627450980392157,0.627450980392157);
ENDSEC;
END-ISO-10303-21;
